<?xml version="1.0" standalone="no"?>
<!DOCTYPE svg PUBLIC "-//W3C//DTD SVG 20010904//EN"
 "http://www.w3.org/TR/2001/REC-SVG-20010904/DTD/svg10.dtd">
<svg version="1.0" xmlns="http://www.w3.org/2000/svg"
 width="1024.000000pt" height="1024.000000pt" viewBox="0 0 1024.000000 1024.000000"
 preserveAspectRatio="xMidYMid meet">

<g transform="translate(0.000000,1024.000000) scale(0.100000,-0.100000)"
fill="#000000" stroke="none">
<path d="M2740 9635 l0 -145 25 0 c24 0 25 2 25 69 0 76 16 104 48 84 13 -7
18 -28 20 -82 3 -68 4 -71 27 -71 24 0 25 2 25 73 0 39 -6 83 -13 97 -11 21
-20 25 -60 24 l-47 0 0 48 c0 45 -2 48 -25 48 l-25 0 0 -145z"/>
<path d="M4817 9773 c-4 -3 -7 -69 -7 -145 l0 -138 31 0 32 0 -6 83 c-4 45 -7
110 -7 145 0 53 -3 62 -18 62 -10 0 -22 -3 -25 -7z"/>
<path d="M7477 9773 c-4 -3 -7 -69 -7 -145 l0 -138 25 0 c23 0 24 3 27 71 2
57 7 74 21 83 29 18 47 -17 47 -91 0 -61 1 -63 25 -63 25 0 25 1 25 80 0 68
-3 83 -21 101 -17 17 -29 20 -60 16 l-39 -5 0 49 c0 41 -3 49 -18 49 -10 0
-22 -3 -25 -7z"/>
<path d="M7684 9765 c-8 -21 2 -45 19 -45 8 0 20 7 27 15 10 12 10 18 0 30 -7
8 -19 15 -27 15 -7 0 -16 -7 -19 -15z"/>
<path d="M912 9743 c2 -13 14 -19 41 -21 l37 -3 0 -115 0 -115 28 3 27 3 3
108 c2 97 4 107 22 107 32 0 50 11 50 31 0 17 -9 19 -106 19 -95 0 -105 -2
-102 -17z"/>
<path d="M1900 9625 l0 -135 60 0 c83 0 126 19 135 60 5 24 2 39 -13 59 -16
22 -17 28 -6 39 23 22 17 68 -12 91 -21 17 -41 21 -95 21 l-69 0 0 -135z m133
73 c16 -24 -9 -48 -49 -48 -31 0 -34 3 -34 28 0 16 3 32 7 36 13 12 66 2 76
-16z m2 -123 c0 -28 -3 -30 -42 -33 l-43 -3 0 36 0 36 43 -3 c39 -3 42 -5 42
-33z"/>
<path d="M3070 9740 c-47 -47 -22 -106 54 -133 52 -18 68 -43 42 -63 -27 -19
-42 -18 -66 6 -11 11 -31 20 -45 20 -23 0 -24 -2 -13 -26 33 -71 174 -70 192
1 11 44 -13 77 -74 100 -41 16 -56 27 -58 43 -2 13 3 25 12 28 24 9 66 -4 66
-21 0 -15 40 -21 53 -9 11 11 -15 52 -40 63 -39 18 -100 14 -123 -9z"/>
<path d="M4220 9625 l0 -135 85 0 c84 0 85 0 85 25 0 24 -3 25 -60 25 l-60 0
0 35 0 35 55 0 c48 0 55 2 55 20 0 18 -7 20 -56 20 l-55 0 3 33 c3 32 4 32 61
35 49 3 57 6 57 22 0 18 -7 20 -85 20 l-85 0 0 -135z"/>
<path d="M5341 9739 c-61 -57 -54 -187 11 -233 47 -33 133 -11 156 39 7 14 12
50 12 80 0 30 -5 66 -12 80 -25 54 -123 74 -167 34z m103 -32 c19 -14 32 -82
22 -121 -3 -14 -17 -33 -30 -42 -34 -22 -62 -4 -76 46 -23 86 28 158 84 117z"/>
<path d="M6265 9735 c-14 -13 -25 -29 -25 -35 0 -15 46 -12 60 5 19 23 49 18
56 -9 8 -32 -2 -46 -32 -46 -36 0 -33 -38 4 -42 24 -3 27 -7 27 -38 0 -28 -4
-36 -21 -38 -11 -2 -27 4 -34 13 -16 19 -60 20 -60 1 0 -26 50 -56 92 -56 71
0 114 74 69 119 -17 17 -18 21 -5 32 21 17 18 75 -6 99 -29 29 -94 27 -125 -5z"/>
<path d="M6605 9738 c-22 -19 -27 -34 -32 -94 -4 -54 -2 -77 11 -102 29 -57
85 -69 132 -28 24 20 28 32 32 89 2 37 1 78 -2 92 -16 64 -90 86 -141 43z m83
-30 c12 -12 16 -106 6 -145 -8 -29 -34 -38 -53 -18 -17 17 -22 122 -9 158 8
20 38 23 56 5z"/>
<path d="M6966 9752 c-10 -16 -86 -237 -86 -249 0 -7 10 -13 23 -13 16 0 26 9
34 30 10 27 15 30 58 30 42 0 47 -2 56 -30 9 -24 17 -30 39 -30 l28 0 -34 93
c-19 50 -41 111 -50 135 -12 33 -21 42 -39 42 -13 0 -26 -4 -29 -8z m53 -144
c1 -13 -7 -18 -29 -18 -16 0 -30 1 -30 3 0 2 8 25 17 52 l16 49 13 -34 c7 -19
13 -43 13 -52z"/>
<path d="M1680 9716 c0 -13 -7 -26 -15 -30 -8 -3 -15 -12 -15 -21 0 -8 7 -15
15 -15 11 0 15 -13 15 -52 0 -72 17 -103 55 -103 20 0 31 6 33 18 2 10 -3 17
-11 17 -17 0 -27 30 -27 83 0 30 4 37 20 37 13 0 20 7 20 19 0 10 -9 21 -20
24 -12 3 -20 14 -20 26 0 16 -6 21 -25 21 -20 0 -25 -5 -25 -24z"/>
<path d="M7790 9715 c0 -16 -6 -25 -15 -25 -8 0 -15 -7 -15 -15 0 -9 7 -18 15
-21 11 -5 15 -22 15 -69 0 -72 16 -98 59 -93 27 3 44 38 18 38 -17 0 -27 30
-27 81 0 28 5 38 20 42 11 3 20 12 20 21 0 9 -8 16 -20 16 -15 0 -20 7 -20 25
0 20 -5 25 -25 25 -20 0 -25 -5 -25 -25z"/>
<path d="M8310 9715 c0 -16 -6 -25 -15 -25 -8 0 -15 -9 -15 -20 0 -11 7 -20
15 -20 11 0 15 -13 15 -52 0 -72 17 -103 55 -103 20 0 31 6 33 18 2 10 -3 17
-11 17 -11 0 -16 15 -19 60 -2 50 0 60 15 64 21 5 23 36 2 36 -9 0 -15 9 -15
25 0 21 -5 25 -30 25 -25 0 -30 -4 -30 -25z"/>
<path d="M5067 9713 c-4 -3 -7 -19 -7 -35 0 -24 -4 -28 -30 -28 -25 0 -30 -4
-30 -25 0 -21 5 -25 29 -25 26 0 30 -4 33 -32 2 -25 8 -33 23 -33 15 0 21 8
23 33 3 28 7 32 33 32 24 0 29 4 29 25 0 21 -5 25 -30 25 -28 0 -30 3 -30 35
0 27 -4 35 -18 35 -10 0 -22 -3 -25 -7z"/>
<path d="M1215 9690 c-11 -4 -32 -5 -47 -3 l-28 6 0 -92 c0 -50 0 -94 0 -98 0
-5 11 -9 24 -11 25 -3 25 -2 28 70 3 67 5 73 25 76 23 3 41 38 26 52 -4 4 -17
4 -28 0z"/>
<path d="M1270 9610 c0 -67 3 -83 20 -100 22 -22 51 -26 80 -10 13 7 21 7 25
0 3 -5 15 -10 26 -10 18 0 19 8 19 100 l0 100 -25 0 c-24 0 -25 -2 -25 -70 0
-60 -3 -71 -21 -80 -35 -19 -49 3 -49 81 0 67 -1 69 -25 69 -25 0 -25 -1 -25
-80z"/>
<path d="M1497 9672 c-20 -22 -22 -65 -4 -79 6 -6 29 -16 50 -23 39 -12 45
-32 12 -39 -10 -2 -25 5 -32 15 -10 13 -17 15 -35 7 l-22 -10 26 -26 c49 -49
138 -27 138 33 0 32 -24 53 -73 64 -19 5 -27 12 -25 23 4 23 23 27 41 8 19
-19 57 -20 57 -2 0 44 -101 65 -133 29z"/>
<path d="M2155 9665 c-20 -19 -25 -34 -25 -74 0 -43 4 -53 31 -75 45 -38 129
-31 129 10 0 12 -8 14 -44 9 -38 -6 -46 -4 -55 14 -11 19 -8 20 51 23 l63 3
-3 35 c-6 76 -94 109 -147 55z m93 -37 c3 -15 -4 -18 -33 -18 -33 0 -35 2 -25
21 14 24 53 22 58 -3z"/>
<path d="M2340 9588 c0 -97 0 -98 25 -98 23 0 24 3 27 78 3 75 4 77 28 77 24
0 25 -3 30 -75 4 -67 7 -75 26 -78 17 -2 23 4 28 29 10 51 7 97 -8 134 l-15
34 -70 -1 -71 -2 0 -98z"/>
<path d="M2582 9683 c-21 -8 -42 -59 -42 -101 0 -53 36 -92 83 -92 37 0 87 32
87 56 0 19 -37 18 -57 -1 -35 -36 -77 17 -57 72 11 32 43 43 56 19 11 -19 58
-22 58 -3 0 26 -45 57 -81 56 -19 0 -40 -3 -47 -6z"/>
<path d="M3293 9668 c-42 -47 -33 -141 15 -167 28 -15 84 -14 107 2 28 21 10
39 -31 31 -21 -4 -40 -2 -49 6 -25 21 -17 30 29 30 63 0 76 7 76 42 0 68 -101
107 -147 56z m95 -40 c3 -15 -4 -18 -32 -18 -39 0 -39 0 -30 25 9 22 58 16 62
-7z"/>
<path d="M3491 9664 c-28 -36 -29 -116 -1 -144 42 -42 116 -33 138 16 11 22 9
24 -13 24 -14 0 -25 -4 -25 -9 0 -16 -40 -23 -56 -10 -20 17 -15 88 8 103 13
8 21 6 36 -7 20 -19 62 -23 62 -7 0 6 -11 22 -25 35 -35 36 -96 35 -124 -1z"/>
<path d="M3670 9612 c0 -54 5 -84 16 -100 16 -24 53 -29 85 -12 13 8 19 7 19
0 0 -6 10 -10 23 -8 21 3 22 8 25 101 l3 98 -28 -3 c-26 -3 -27 -5 -24 -60 3
-68 -11 -101 -42 -96 -20 3 -22 10 -25 81 -3 74 -4 77 -27 77 -24 0 -25 -2
-25 -78z"/>
<path d="M3880 9589 c0 -98 0 -100 23 -97 20 3 22 10 27 73 4 62 7 70 26 73
26 4 39 41 18 49 -8 3 -21 0 -28 -6 -10 -8 -16 -9 -21 -1 -3 5 -15 10 -26 10
-18 0 -19 -8 -19 -101z"/>
<path d="M4035 9665 c-33 -32 -35 -110 -5 -143 33 -35 87 -41 129 -13 22 15 2
33 -29 26 -30 -7 -70 8 -70 25 0 6 17 10 38 10 65 0 82 9 82 42 0 41 -40 78
-85 78 -25 0 -44 -8 -60 -25z m85 -19 c0 -2 3 -11 6 -20 5 -13 -1 -16 -30 -16
-38 0 -44 8 -24 28 11 11 48 17 48 8z"/>
<path d="M4411 9683 c0 -4 15 -48 32 -98 28 -79 35 -90 56 -90 20 0 27 11 57
95 19 52 34 96 34 98 0 1 -13 2 -29 2 -28 0 -30 -4 -42 -55 -7 -30 -15 -55
-19 -55 -4 0 -13 24 -21 53 -12 45 -18 52 -42 55 -15 2 -27 0 -26 -5z"/>
<path d="M4629 9671 c-20 -16 -22 -22 -11 -33 10 -10 16 -10 32 0 31 19 60 15
60 -8 0 -15 -7 -20 -28 -20 -41 0 -72 -26 -72 -60 0 -50 44 -75 91 -50 13 7
19 7 19 0 0 -5 12 -10 28 -10 l27 0 -3 83 c-3 68 -7 85 -24 100 -27 23 -90 22
-119 -2z m89 -107 c-5 -25 -35 -41 -49 -27 -9 9 -9 16 1 28 17 21 52 20 48 -1z"/>
<path d="M5560 9553 l0 -133 25 0 c22 0 25 4 25 39 l0 39 38 -5 c31 -4 41 0
62 22 20 21 25 37 24 75 0 27 -8 59 -17 74 -16 24 -22 25 -87 24 l-70 -1 0
-134z m109 83 c7 -8 11 -31 9 -52 -6 -73 -68 -68 -68 5 0 54 32 79 59 47z"/>
<path d="M5787 9672 c-34 -38 -19 -77 39 -97 21 -7 39 -19 39 -26 0 -20 -34
-23 -53 -6 -11 9 -25 12 -37 7 -18 -6 -18 -8 7 -33 49 -49 138 -27 138 32 0
33 -11 44 -62 60 -39 13 -50 34 -23 45 8 3 21 -1 29 -9 18 -19 56 -19 56 -2 0
44 -101 65 -133 29z"/>
<path d="M6042 9678 c3 -7 18 -52 34 -100 25 -77 31 -88 51 -88 26 0 31 10 68
128 l23 73 -26 -3 c-22 -3 -28 -11 -43 -63 -17 -63 -20 -62 -42 15 -11 38 -17
45 -41 48 -21 3 -27 0 -24 -10z"/>
<path d="M7140 9589 c0 -99 0 -99 25 -99 24 0 25 3 25 63 0 69 6 83 35 88 11
3 21 14 23 25 3 20 -2 21 -52 22 l-56 0 0 -99z"/>
<path d="M7295 9665 c-20 -19 -25 -34 -25 -75 0 -41 5 -56 25 -75 30 -31 82
-33 119 -4 33 26 34 49 1 49 -14 0 -25 -4 -25 -9 0 -16 -40 -23 -55 -11 -18
15 -20 81 -3 98 17 17 45 15 52 -3 6 -17 56 -21 56 -5 0 25 -50 60 -85 60 -25
0 -44 -8 -60 -25z"/>
<path d="M7680 9590 l0 -100 25 0 25 0 0 100 0 100 -25 0 -25 0 0 -100z"/>
<path d="M7925 9664 c-35 -38 -34 -101 1 -143 21 -25 33 -31 66 -31 49 0 79
15 71 36 -4 11 -13 13 -34 9 -36 -8 -69 2 -69 21 0 10 14 14 55 14 61 0 72 10
61 55 -17 68 -104 90 -151 39z m94 -27 c15 -19 4 -27 -36 -27 -35 0 -41 8 -21
28 16 16 43 15 57 -1z"/>
<path d="M8130 9672 c-16 -13 -24 -32 -28 -70 -4 -47 -2 -54 26 -82 39 -38 83
-40 117 -5 14 13 25 29 25 35 0 15 -39 12 -57 -5 -22 -23 -46 -14 -56 20 -11
40 6 85 33 85 11 0 23 -7 26 -15 7 -19 54 -20 54 -2 0 8 -10 23 -23 35 -29 27
-86 29 -117 4z"/>
<path d="M8430 9607 c0 -69 3 -87 18 -100 22 -20 73 -22 90 -5 9 9 12 9 12 0
0 -7 11 -12 25 -12 l25 0 0 100 c0 100 0 100 -25 100 -23 0 -24 -3 -27 -71 -2
-54 -7 -75 -20 -82 -32 -20 -48 8 -48 84 0 67 -1 69 -25 69 -25 0 -25 -1 -25
-83z"/>
<path d="M8640 9590 l0 -100 25 0 c24 0 25 2 25 63 0 51 4 68 19 81 11 10 25
15 30 11 7 -4 11 4 11 19 0 28 -26 36 -48 14 -9 -9 -12 -9 -12 0 0 7 -11 12
-25 12 l-25 0 0 -100z"/>
<path d="M8803 9668 c-63 -68 -21 -177 68 -178 40 0 76 21 65 39 -5 7 -20 9
-42 5 -33 -6 -64 7 -64 27 0 5 27 9 60 9 l60 0 0 35 c0 75 -98 116 -147 63z
m86 -31 c14 -18 4 -27 -31 -27 -30 0 -35 9 -16 28 16 16 33 15 47 -1z"/>
<path d="M6474 9535 c-9 -23 3 -45 25 -45 23 0 32 18 19 43 -11 21 -37 22 -44
2z"/>
<path d="M4840 8757 l0 -84 42 1 c37 1 44 5 52 29 15 42 -3 82 -37 82 -23 -1
-27 3 -27 27 0 18 -5 28 -15 28 -12 0 -15 -16 -15 -83z m70 -27 c0 -23 -4 -30
-20 -30 -16 0 -20 7 -20 30 0 23 4 30 20 30 16 0 20 -7 20 -30z"/>
<path d="M5500 8756 l0 -83 37 1 c30 1 40 7 53 29 13 24 13 30 -1 55 -11 20
-22 27 -42 25 -24 -2 -27 2 -27 28 0 16 -4 29 -10 29 -6 0 -10 -35 -10 -84z
m70 -28 c0 -22 -27 -35 -42 -20 -8 8 -8 19 1 38 9 21 14 24 26 14 8 -7 15 -21
15 -32z"/>
<path d="M5615 8831 c-7 -12 12 -24 25 -16 11 7 4 25 -10 25 -5 0 -11 -4 -15
-9z"/>
<path d="M5780 8754 c0 -64 3 -85 13 -82 13 5 22 106 12 145 -12 51 -25 19
-25 -63z"/>
<path d="M5828 8775 c-1 -36 -2 -72 -2 -82 -1 -9 5 -18 12 -20 9 -4 12 17 12
81 0 101 -19 119 -22 21z"/>
<path d="M5875 8831 c-3 -5 -1 -12 5 -16 12 -7 30 2 30 16 0 12 -27 12 -35 0z"/>
<path d="M4073 8822 c-19 -12 -34 -63 -28 -94 7 -30 39 -58 67 -58 50 0 77 88
42 138 -15 22 -57 29 -81 14z m56 -26 c7 -8 11 -32 9 -53 -3 -33 -6 -38 -28
-38 -31 0 -46 38 -31 78 12 30 32 35 50 13z"/>
<path d="M4501 8812 c-6 -11 -6 -24 1 -36 7 -12 7 -21 -1 -29 -15 -15 -14 -54
2 -64 6 -4 33 -8 58 -9 l46 -1 -3 36 c-3 47 -2 45 -18 32 -21 -18 -31 5 -16
35 11 19 11 26 0 39 -17 20 -57 19 -69 -3z m49 -17 c0 -8 -7 -15 -15 -15 -16
0 -20 12 -8 23 11 12 23 8 23 -8z m-6 -71 c3 -9 3 -20 0 -25 -9 -15 -34 10
-27 27 7 19 19 18 27 -2z"/>
<path d="M4704 8805 c-12 -18 -15 -38 -11 -67 14 -101 122 -86 122 17 0 53
-18 75 -61 75 -25 0 -38 -7 -50 -25z m78 -20 c17 -38 0 -80 -32 -80 -22 0 -25
5 -28 38 -5 63 37 92 60 42z"/>
<path d="M5933 8795 c-6 -14 -7 -25 -3 -25 5 0 10 -21 12 -47 3 -41 6 -48 26
-51 12 -2 22 1 22 7 0 6 -4 11 -10 11 -15 0 -12 77 3 84 10 5 10 7 0 12 -7 3
-13 12 -13 20 0 23 -24 16 -37 -11z"/>
<path d="M4200 8786 c0 -1 -3 -35 -5 -77 -4 -61 -2 -78 9 -82 10 -4 16 2 18
21 2 21 8 26 24 24 27 -4 43 16 46 55 3 42 -16 61 -57 60 -19 -1 -35 -1 -35
-1z m68 -66 c-4 -21 -42 -19 -46 3 -2 10 2 25 9 33 12 14 14 14 26 -2 8 -10
12 -25 11 -34z"/>
<path d="M4333 8783 c-7 -2 -13 -15 -13 -28 0 -17 8 -26 30 -34 17 -5 30 -15
30 -21 0 -8 -10 -9 -30 -5 -38 8 -41 -12 -3 -21 60 -16 82 36 27 64 -25 13
-33 21 -25 27 7 4 18 2 24 -4 15 -15 27 -14 27 3 0 21 -37 32 -67 19z"/>
<path d="M4970 8775 c-16 -20 -6 -43 25 -55 14 -5 25 -14 25 -20 0 -13 -6 -13
-32 1 -25 13 -35 5 -18 -16 26 -32 90 -7 76 30 -3 8 -17 20 -31 25 -37 14 -32
33 7 24 29 -6 31 -5 19 10 -17 20 -55 21 -71 1z"/>
<path d="M5082 8778 c-7 -7 -12 -29 -12 -50 0 -41 23 -62 62 -56 33 5 34 27 2
25 -15 -1 -29 4 -31 11 -3 8 7 12 32 12 35 0 37 1 30 27 -3 15 -12 31 -18 35
-18 12 -52 9 -65 -4z m56 -26 c2 -7 -7 -12 -23 -12 -24 0 -26 2 -15 15 14 17
31 16 38 -3z"/>
<path d="M5190 8728 c0 -44 4 -58 14 -58 11 0 16 14 18 48 2 31 7 46 16 45 6
-2 12 3 12 10 0 8 -12 14 -30 14 -30 0 -30 -1 -30 -59z"/>
<path d="M5265 8773 c4 -10 14 -37 22 -60 8 -24 21 -43 28 -43 7 0 22 27 33
60 15 44 17 60 8 60 -7 0 -20 -15 -28 -32 l-16 -33 -12 33 c-7 17 -19 32 -27
32 -10 0 -13 -5 -8 -17z"/>
<path d="M5393 8783 c-15 -5 -18 -33 -4 -33 6 0 13 5 16 10 9 15 35 12 35 -4
0 -7 -14 -16 -31 -20 -26 -5 -30 -10 -27 -33 3 -26 7 -28 48 -29 l45 -2 -4 47
c-2 25 -8 52 -13 59 -10 12 -42 15 -65 5z m51 -78 c-4 -8 -12 -15 -20 -15 -8
0 -14 7 -14 15 0 8 9 15 20 15 13 0 18 -5 14 -15z"/>
<path d="M5614 8776 c-9 -24 1 -99 14 -104 9 -3 12 13 12 57 0 57 -13 81 -26
47z"/>
<path d="M5681 8777 c-14 -18 -2 -30 15 -16 7 6 18 8 24 4 18 -11 11 -25 -15
-25 -29 0 -47 -27 -34 -52 7 -12 20 -16 49 -15 l40 1 0 46 c0 25 -5 51 -12 58
-16 16 -53 15 -67 -1z m49 -66 c0 -14 -18 -23 -30 -16 -6 4 -8 11 -5 16 8 12
35 12 35 0z"/>
<path d="M5880 8729 c0 -81 24 -77 28 4 2 46 0 57 -13 57 -12 0 -15 -13 -15
-61z"/>
<path d="M6000 8786 c0 -2 10 -30 22 -61 20 -54 21 -58 5 -70 -23 -17 -21 -27
4 -23 17 2 28 20 50 81 21 58 25 77 15 77 -8 0 -20 -17 -29 -37 l-14 -37 -12
37 c-7 20 -19 37 -27 37 -8 0 -14 -2 -14 -4z"/>
<path d="M1887 8542 c-13 -15 -17 -37 -15 -103 l2 -84 6 70 6 70 4 -70 3 -70
6 75 c4 41 10 81 14 88 6 9 59 12 208 12 l199 0 0 -78 c0 -93 7 -100 110 -104
l65 -3 0 -290 0 -290 -291 -3 -291 -2 -12 22 c-7 14 -10 16 -6 4 4 -14 1 -17
-11 -12 -15 6 -15 4 -2 -16 10 -16 30 -25 59 -30 49 -7 506 0 529 9 8 3 21 7
29 9 8 1 18 9 22 16 5 7 9 148 9 313 l0 300 -91 93 -90 92 -223 0 c-203 0
-224 -2 -239 -18z m567 -154 c-3 -4 -25 -8 -49 -8 -39 0 -45 3 -51 25 -3 14
-3 42 1 63 l7 37 48 -55 c27 -30 46 -58 44 -62z m63 -270 c-2 -29 -3 -6 -3 52
0 58 1 81 3 53 2 -29 2 -77 0 -105z m0 -90 c-3 -7 -5 -2 -5 12 0 14 2 19 5 13
2 -7 2 -19 0 -25z m0 -70 c-3 -7 -5 -2 -5 12 0 14 2 19 5 13 2 -7 2 -19 0 -25z
m0 -90 c-2 -13 -4 -3 -4 22 0 25 2 35 4 23 2 -13 2 -33 0 -45z"/>
<path d="M7940 8535 c-74 -23 -131 -90 -148 -172 -6 -28 -13 -38 -27 -39 -11
-1 -30 -2 -42 -3 -13 0 -40 -17 -61 -36 -64 -57 -76 -141 -29 -212 28 -42 61
-59 128 -67 l56 -6 9 38 c7 30 15 39 42 47 31 9 42 28 22 40 -18 11 -10 44 19
77 28 32 30 32 66 19 40 -14 44 -13 50 18 7 35 14 41 59 41 45 0 66 -13 66
-41 0 -28 24 -41 46 -24 29 22 47 18 84 -20 32 -33 33 -34 16 -60 -16 -25 -15
-62 1 -52 5 3 18 1 31 -4 16 -6 22 -16 22 -39 0 -28 3 -30 35 -30 95 0 175 86
175 188 0 109 -87 195 -198 196 -31 1 -69 -3 -84 -7 -24 -8 -28 -5 -43 27 -50
104 -181 158 -295 121z"/>
<path d="M2000 8365 l0 -65 85 0 85 0 0 65 0 65 -85 0 -85 0 0 -65z"/>
<path d="M4960 8228 c-12 -68 -25 -129 -28 -137 -3 -9 -1 -12 6 -7 7 4 12 1
12 -8 0 -9 4 -16 9 -16 5 0 12 23 16 51 4 29 13 53 21 56 8 3 14 16 14 30 0
16 4 22 12 17 8 -5 9 6 5 41 -4 26 -7 58 -7 71 0 17 -6 24 -19 24 -16 0 -22
-18 -41 -122z"/>
<path d="M1888 8193 l-2 -138 -6 130 c-4 97 -6 64 -6 -130 0 -189 2 -225 6
-130 l6 130 5 -125 c3 -91 5 -54 7 138 1 144 0 262 -3 262 -3 0 -6 -62 -7
-137z"/>
<path d="M2000 8215 c0 -13 29 -15 200 -15 171 0 200 2 200 15 0 13 -29 15
-200 15 -171 0 -200 -2 -200 -15z"/>
<path d="M8066 8207 c-7 -28 -72 -55 -89 -38 -27 27 -56 -4 -35 -38 18 -29 -7
-78 -43 -86 -40 -9 -38 -37 4 -56 17 -8 32 -18 33 -24 0 -5 4 -18 9 -28 5 -12
1 -24 -10 -38 -18 -19 -18 -20 0 -33 14 -10 24 -11 36 -3 27 17 82 -3 89 -33
7 -32 50 -42 50 -12 0 30 29 47 82 48 26 0 54 6 60 12 9 9 9 12 0 12 -18 0
-15 62 5 90 25 35 24 47 -3 87 -28 42 -29 51 -9 73 14 15 14 18 0 30 -12 10
-18 10 -30 0 -20 -16 -71 -4 -90 22 -8 12 -12 25 -9 30 3 4 -6 8 -19 8 -18 0
-27 -7 -31 -23z m100 -111 c29 -29 34 -41 34 -81 0 -40 -5 -52 -34 -81 -29
-29 -41 -34 -79 -34 -37 0 -51 5 -76 30 -79 79 -29 200 83 200 30 0 45 -7 72
-34z"/>
<path d="M8046 8064 c-19 -18 -21 -75 -4 -92 18 -18 73 -14 91 6 37 40 9 102
-46 102 -14 0 -33 -7 -41 -16z"/>
<path d="M5225 8178 c-15 -44 -53 -260 -48 -280 4 -19 3 -20 -7 -8 -9 12 -11
8 -6 -19 3 -18 6 -37 6 -42 0 -5 4 -9 8 -9 5 0 16 37 26 83 23 106 37 157 46
157 4 0 11 -24 15 -52 4 -29 9 -47 12 -40 3 6 9 10 14 7 5 -3 3 -14 -3 -25
-14 -22 -3 -39 13 -23 13 13 -8 118 -28 138 -7 8 -9 15 -3 17 13 4 -11 100
-27 106 -7 2 -15 -2 -18 -10z"/>
<path d="M2006 8105 c8 -21 39 -25 199 -25 162 0 195 5 195 27 0 11 -33 14
-199 13 -162 -1 -199 -4 -195 -15z"/>
<path d="M5041 8104 c0 -11 3 -14 6 -6 3 7 2 16 -1 19 -3 4 -6 -2 -5 -13z"/>
<path d="M5051 8053 c-1 -17 -6 -21 -18 -17 -12 4 -14 3 -6 -3 7 -5 10 -22 7
-43 -4 -27 -2 -32 6 -20 9 11 10 3 6 -35 -4 -34 -3 -44 3 -30 8 17 10 14 11
-15 1 -32 2 -33 10 -12 6 14 5 54 -4 110 -8 48 -14 77 -15 65z"/>
<path d="M4773 7979 c-12 -28 -19 -58 -16 -66 4 -11 2 -14 -5 -9 -8 5 -10 1
-5 -10 5 -15 9 -14 30 10 13 15 28 24 33 21 6 -3 10 -1 10 5 0 6 5 8 10 5 6
-3 10 -22 10 -41 0 -38 37 -134 51 -134 15 0 30 49 23 76 -4 14 -2 24 5 24 6
0 11 7 11 15 0 8 -4 15 -10 15 -5 0 -10 -4 -10 -9 0 -5 -8 -7 -18 -4 -12 3
-26 24 -37 56 -20 58 -41 97 -53 97 -5 0 -18 -23 -29 -51z"/>
<path d="M1995 7999 c-4 -6 -4 -13 -1 -16 3 -3 96 -7 205 -8 150 -1 201 2 205
11 3 7 2 15 -1 18 -11 11 -401 7 -408 -5z"/>
<path d="M2000 7886 c0 -20 13 -22 117 -18 68 3 93 7 97 18 4 12 -13 14 -104
14 -87 0 -110 -3 -110 -14z"/>
<path d="M4588 7893 c18 -2 45 -2 60 0 15 2 0 4 -33 4 -33 0 -45 -2 -27 -4z"/>
<path d="M5290 7890 c0 -5 5 -10 11 -10 5 0 7 -4 4 -10 -3 -6 1 -7 10 -4 12 5
13 9 4 20 -13 16 -29 18 -29 4z"/>
<path d="M8307 7887 c-2 -6 3 -22 11 -35 33 -51 -35 -106 -81 -65 -41 37 -51
39 -43 9 5 -19 3 -26 -9 -26 -8 0 -15 -4 -15 -10 0 -9 15 -14 34 -11 21 4 46
-12 46 -30 0 -12 7 -19 20 -19 13 0 20 7 20 19 0 21 23 33 78 39 16 2 16 22
-1 22 -20 0 -9 70 12 71 12 0 12 2 2 6 -11 5 -11 7 0 15 10 7 8 8 -8 5 -12 -3
-31 1 -42 9 -15 11 -20 11 -24 1z"/>
<path d="M4515 7871 c21 -9 233 -15 225 -7 -3 2 -59 7 -125 9 -66 3 -111 2
-100 -2z"/>
<path d="M7808 7869 c-7 -4 -2 -17 13 -38 21 -29 22 -31 5 -50 -21 -23 -6 -37
36 -32 22 2 29 -3 33 -21 4 -15 14 -24 26 -25 15 -1 19 3 15 13 -3 8 1 17 9
20 8 4 13 10 10 14 -3 5 9 2 26 -7 24 -12 33 -13 39 -3 9 14 -10 60 -25 60 -5
0 -3 5 5 10 13 8 12 10 -2 10 -10 0 -18 -7 -18 -15 0 -20 -35 -37 -68 -33 -34
4 -60 51 -41 74 6 8 9 17 5 21 -9 9 -54 10 -68 2z"/>
<path d="M5052 7830 c0 -14 2 -19 5 -12 2 6 2 18 0 25 -3 6 -5 1 -5 -13z"/>
<path d="M5067 7807 c-4 -10 -7 -26 -7 -35 1 -15 2 -15 11 1 6 10 9 25 7 35
-3 16 -4 15 -11 -1z"/>
<path d="M5162 7785 c0 -16 2 -22 5 -12 2 9 2 23 0 30 -3 6 -5 -1 -5 -18z"/>
<path d="M5085 7763 c-3 -21 -9 -49 -11 -63 -4 -18 -3 -21 4 -11 8 11 11 11
18 0 4 -7 3 -14 -2 -16 -13 -4 -2 -116 12 -120 14 -5 47 117 38 141 -5 14 -4
17 4 12 7 -4 12 -2 12 4 0 8 -13 10 -35 7 l-36 -5 7 44 c8 54 -1 59 -11 7z"/>
<path d="M5131 7744 c0 -11 3 -14 6 -6 3 7 2 16 -1 19 -3 4 -6 -2 -5 -13z"/>
<path d="M2150 7535 c0 -17 -5 -25 -18 -25 -27 0 -42 -20 -42 -57 0 -36 19
-52 56 -45 23 4 24 8 24 78 0 43 -4 74 -10 74 -5 0 -10 -11 -10 -25z m-2 -78
c3 -22 -1 -27 -17 -27 -15 0 -21 6 -21 23 0 46 33 49 38 4z"/>
<path d="M7660 7546 c0 -9 5 -16 10 -16 6 0 10 4 10 9 0 6 -4 13 -10 16 -5 3
-10 -1 -10 -9z"/>
<path d="M7970 7546 c0 -9 7 -16 16 -16 9 0 14 5 12 12 -6 18 -28 21 -28 4z"/>
<path d="M8295 7518 c-21 -54 -5 -148 26 -148 5 0 3 13 -6 30 -8 16 -15 45
-15 65 0 20 7 49 15 65 9 17 11 30 6 30 -5 0 -16 -19 -26 -42z"/>
<path d="M1280 7531 c-13 -26 -3 -50 26 -57 13 -3 28 -12 35 -20 16 -20 -17
-31 -43 -15 -23 14 -33 9 -25 -12 3 -8 18 -17 34 -20 68 -13 88 46 27 83 -25
14 -34 24 -27 31 7 7 17 7 31 -2 25 -16 40 -5 22 16 -18 22 -67 19 -80 -4z"/>
<path d="M2303 7533 c0 -10 -1 -37 -2 -61 -1 -43 -1 -43 -31 -37 -37 8 -41
-10 -6 -26 17 -8 29 -8 45 0 18 10 21 21 21 76 0 48 -4 65 -14 65 -7 0 -13 -8
-13 -17z"/>
<path d="M2360 7529 c-14 -25 7 -54 46 -63 25 -7 32 -30 14 -41 -6 -4 -22 0
-35 9 -14 9 -26 12 -30 6 -3 -5 6 -17 20 -26 35 -23 75 -6 75 31 0 20 -8 29
-35 41 -19 8 -35 19 -35 24 0 17 29 23 45 10 18 -15 30 -7 22 15 -10 24 -74
20 -87 -6z"/>
<path d="M2480 7473 c0 -83 16 -92 22 -13 l3 45 33 -53 c18 -29 37 -50 42 -47
13 8 13 145 0 145 -9 0 -14 -35 -13 -77 1 -26 -15 -12 -38 32 -36 68 -49 59
-49 -32z"/>
<path d="M2670 7548 c-1 -2 -2 -34 -3 -73 l-2 -70 43 -3 c33 -2 42 0 42 12 0
11 -10 16 -30 16 l-30 0 0 60 c0 33 -4 60 -10 60 -5 0 -10 -1 -10 -2z"/>
<path d="M7322 7537 c-32 -38 -23 -105 18 -127 24 -13 70 3 70 25 0 18 -4 19
-29 3 -31 -19 -51 -3 -51 42 0 48 20 62 50 35 23 -21 39 -12 24 13 -14 22 -67
27 -82 9z"/>
<path d="M7439 7543 c-1 -5 -3 -36 -3 -70 -1 -45 2 -63 11 -63 9 0 13 20 13
70 0 40 -4 70 -10 70 -5 0 -11 -3 -11 -7z"/>
<path d="M7540 7480 c0 -52 4 -70 13 -70 8 0 13 10 13 23 -1 16 5 23 24 25 34
5 50 20 50 48 0 27 -26 44 -69 44 l-31 0 0 -70z m75 19 c0 -8 -12 -15 -27 -17
-22 -3 -28 1 -28 16 0 10 3 21 6 25 10 10 49 -9 49 -24z"/>
<path d="M7920 7480 c0 -56 3 -70 15 -70 12 0 15 14 15 70 0 56 -3 70 -15 70
-12 0 -15 -14 -15 -70z"/>
<path d="M8340 7540 c0 -5 9 -10 20 -10 18 0 20 -7 20 -59 0 -33 5 -63 10 -66
6 -4 10 18 10 59 0 59 2 66 20 66 11 0 20 5 20 10 0 6 -22 10 -50 10 -27 0
-50 -4 -50 -10z"/>
<path d="M1750 7526 c0 -8 -6 -16 -12 -19 -10 -3 -10 -7 -1 -18 6 -8 13 -30
15 -49 2 -24 9 -36 21 -38 10 -2 17 3 17 12 0 9 -4 16 -10 16 -15 0 -12 57 3
64 10 5 10 7 0 12 -7 3 -13 12 -13 20 0 8 -4 14 -10 14 -5 0 -10 -6 -10 -14z"/>
<path d="M8643 7515 c-6 -14 -7 -25 -2 -25 5 0 9 -18 9 -40 0 -35 3 -40 23
-39 12 0 16 3 10 6 -7 2 -13 20 -13 38 0 18 6 36 13 39 10 5 10 7 0 12 -7 3
-13 12 -13 20 0 22 -14 16 -27 -11z"/>
<path d="M1394 7521 c4 -5 0 -11 -6 -14 -10 -4 -11 -7 0 -18 6 -7 12 -27 12
-45 0 -31 23 -53 35 -34 4 6 1 10 -4 10 -15 0 -14 67 1 72 9 3 8 9 -4 21 -17
18 -43 24 -34 8z"/>
<path d="M8895 7503 c-4 -12 -17 -24 -29 -26 l-21 -4 23 -8 c12 -4 22 -16 22
-26 0 -11 5 -19 10 -19 6 0 10 8 10 19 0 10 10 22 23 26 l22 8 -22 4 c-12 2
-24 14 -26 26 l-4 22 -8 -22z"/>
<path d="M1457 7504 c-1 -1 -1 -23 1 -48 5 -54 22 -62 22 -11 0 28 4 35 20 35
31 0 23 17 -10 22 -17 3 -31 3 -33 2z"/>
<path d="M1537 7503 c-4 -3 -7 -23 -7 -44 0 -42 17 -58 60 -54 23 1 25 6 25
48 0 55 -18 64 -25 12 -7 -47 -24 -50 -28 -5 -4 37 -14 55 -25 43z"/>
<path d="M1646 7488 c-21 -29 -20 -41 3 -69 16 -21 22 -22 45 -11 36 16 34 35
-4 27 -27 -6 -30 -4 -30 19 0 30 16 42 36 25 19 -16 30 -4 14 16 -18 22 -46
19 -64 -7z"/>
<path d="M1808 7483 c-3 -68 6 -83 51 -79 24 3 26 8 29 55 2 31 -1 51 -7 51
-6 0 -11 -15 -11 -34 0 -33 -20 -62 -33 -49 -4 3 -7 24 -7 45 0 43 -19 53 -22
11z"/>
<path d="M1913 7494 c-8 -20 2 -89 12 -89 6 0 11 17 13 38 2 24 8 37 18 37 8
0 14 6 14 14 0 17 -50 17 -57 0z"/>
<path d="M2000 7490 c-11 -11 -20 -27 -20 -35 0 -16 34 -55 48 -55 5 0 17 7
28 16 16 13 16 15 2 10 -21 -6 -48 2 -48 15 0 5 14 9 30 9 22 0 30 5 30 18 0
21 -18 42 -37 42 -7 0 -22 -9 -33 -20z m45 -10 c3 -6 -1 -13 -10 -16 -19 -8
-30 0 -20 15 8 14 22 14 30 1z"/>
<path d="M2770 7491 c-28 -54 6 -105 56 -82 18 8 24 19 24 44 0 18 -5 38 -12
45 -18 18 -56 14 -68 -7z m54 -17 c7 -19 -11 -57 -25 -49 -5 4 -9 16 -9 29 0
36 23 50 34 20z"/>
<path d="M2884 7502 c-6 -4 -11 -35 -11 -69 0 -57 1 -62 23 -67 28 -7 67 10
62 26 -4 12 -19 21 -53 34 -18 7 -18 8 5 12 28 5 42 21 35 40 -2 6 0 12 5 12
6 0 10 5 10 10 0 12 -60 13 -76 2z m39 -27 c1 -5 -6 -11 -15 -13 -11 -2 -18 3
-18 13 0 17 30 18 33 0z m7 -85 c0 -5 -9 -10 -20 -10 -11 0 -20 5 -20 10 0 6
9 10 20 10 11 0 20 -4 20 -10z"/>
<path d="M2982 7498 c-19 -19 -14 -34 13 -46 36 -17 31 -33 -7 -25 -23 4 -30
2 -23 -5 18 -18 51 -22 70 -8 23 17 14 43 -20 56 -36 14 -31 23 7 14 29 -6 31
-5 19 10 -16 19 -42 21 -59 4z"/>
<path d="M7660 7455 c0 -51 10 -69 25 -44 10 15 -4 99 -16 99 -5 0 -9 -25 -9
-55z"/>
<path d="M7710 7439 c0 -39 4 -69 10 -69 6 0 10 9 10 21 0 15 5 19 19 14 37
-11 66 46 42 84 -5 7 -25 15 -45 16 l-36 3 0 -69z m58 27 c6 -27 -6 -46 -23
-40 -15 6 -21 45 -8 58 11 10 28 1 31 -18z"/>
<path d="M7824 7485 c-8 -13 -14 -32 -12 -42 4 -22 43 -42 69 -36 24 7 25 25
2 22 -30 -3 -43 1 -43 11 0 6 14 10 30 10 22 0 30 5 30 18 0 44 -50 56 -76 17z
m51 -5 c3 -5 -3 -10 -15 -10 -12 0 -18 5 -15 10 3 6 10 10 15 10 5 0 12 -4 15
-10z"/>
<path d="M7970 7460 c0 -38 4 -50 15 -50 11 0 15 12 15 50 0 38 -4 50 -15 50
-11 0 -15 -12 -15 -50z"/>
<path d="M8020 7459 c0 -57 17 -66 22 -11 2 25 8 37 18 37 10 0 16 -12 18 -37
2 -21 7 -38 13 -38 11 0 13 89 2 91 -5 1 -23 2 -40 4 l-33 3 0 -49z"/>
<path d="M8137 7492 c-10 -10 -17 -28 -17 -40 0 -27 42 -56 70 -47 29 9 25 24
-6 22 -15 -1 -29 4 -31 11 -3 8 6 12 26 12 23 0 31 5 31 18 0 41 -45 55 -73
24z m43 -12 c0 -5 -7 -10 -16 -10 -8 0 -12 5 -9 10 3 6 10 10 16 10 5 0 9 -4
9 -10z"/>
<path d="M8456 7494 c-17 -16 -21 -51 -8 -71 12 -19 72 -21 72 -2 0 6 -8 8
-19 4 -10 -3 -24 1 -31 10 -11 13 -8 15 19 15 23 0 31 5 31 18 0 38 -37 54
-64 26z m39 -14 c3 -5 -3 -10 -15 -10 -12 0 -18 5 -15 10 3 6 10 10 15 10 5 0
12 -4 15 -10z"/>
<path d="M8552 7498 c-20 -20 -14 -38 18 -49 35 -13 30 -32 -6 -23 -13 3 -24
2 -24 -4 0 -15 41 -22 62 -11 26 14 22 37 -7 51 -30 14 -33 32 -4 23 15 -5 20
-3 17 6 -6 19 -40 23 -56 7z"/>
<path d="M8726 7498 c-24 -13 -20 -37 9 -50 14 -6 25 -15 25 -20 0 -12 -24
-10 -38 4 -9 9 -12 8 -12 -4 0 -22 34 -32 60 -18 26 14 22 31 -13 48 -34 17
-36 36 -2 28 14 -4 25 -2 25 3 0 13 -35 20 -54 9z"/>
<path d="M4090 7338 c0 -3 -16 -40 -35 -82 -19 -42 -32 -76 -29 -76 9 0 77
151 70 157 -3 4 -6 4 -6 1z"/>
<path d="M4120 7270 c0 -40 4 -70 10 -70 6 0 10 16 10 35 0 23 6 38 15 42 21
7 27 0 35 -44 l8 -38 1 41 c1 45 -16 68 -43 58 -12 -5 -16 0 -16 20 0 14 -4
26 -10 26 -6 0 -10 -30 -10 -70z"/>
<path d="M4430 7268 c0 -39 2 -69 5 -66 9 8 12 138 3 138 -4 0 -8 -32 -8 -72z"/>
<path d="M4540 7270 c0 -73 17 -98 22 -33 2 25 8 39 19 41 13 2 19 -9 27 -45
l10 -48 1 46 c1 50 -17 76 -44 65 -11 -4 -15 1 -15 19 0 14 -4 25 -10 25 -6 0
-10 -30 -10 -70z"/>
<path d="M4806 7325 c-12 -12 -13 -21 -6 -35 8 -14 7 -25 -2 -40 -20 -32 1
-55 50 -55 24 0 37 4 32 9 -5 5 -5 17 1 27 8 16 6 19 -13 16 -21 -2 -23 2 -23
42 0 48 -14 61 -39 36z m27 -11 c9 -9 -4 -35 -14 -28 -5 3 -9 12 -9 20 0 14
12 19 23 8z m5 -76 c18 -18 15 -28 -8 -28 -13 0 -20 7 -20 20 0 23 10 26 28 8z"/>
<path d="M5001 7319 c-5 -13 -19 -48 -30 -78 -12 -29 -20 -56 -17 -58 5 -5 27
42 52 111 15 42 11 65 -5 25z"/>
<path d="M5388 7318 c-2 -14 -11 -22 -26 -23 -28 -2 -42 -20 -42 -57 0 -31 12
-41 52 -43 l28 -2 0 74 c0 71 -5 95 -12 51z m-2 -62 c7 -30 -1 -46 -26 -46
-21 0 -33 25 -25 51 9 28 43 24 51 -5z"/>
<path d="M5665 7332 c-10 -10 -5 -132 5 -132 6 0 10 11 10 25 0 21 5 25 29 25
39 0 57 23 43 55 -7 14 -17 26 -24 26 -7 1 -23 3 -35 4 -12 1 -25 0 -28 -3z
m66 -28 c11 -14 10 -18 -6 -30 -30 -22 -45 -17 -45 16 0 23 5 30 19 30 10 0
25 -7 32 -16z"/>
<path d="M5950 7271 c0 -66 1 -69 26 -75 35 -9 54 9 54 50 0 34 -22 56 -47 47
-8 -3 -13 5 -13 21 0 14 -4 26 -10 26 -6 0 -10 -30 -10 -69z m65 -26 c0 -23
-5 -31 -22 -33 -19 -3 -23 1 -23 26 0 33 8 44 30 40 9 -2 15 -14 15 -33z"/>
<path d="M1341 7299 c-12 -19 -21 -51 -21 -72 0 -40 24 -97 40 -97 6 0 3 12
-6 26 -22 33 -22 105 0 139 10 15 15 29 12 32 -3 3 -14 -10 -25 -28z"/>
<path d="M2880 7329 c0 -4 7 -20 15 -35 19 -37 19 -115 0 -140 -19 -25 -19
-40 0 -24 24 20 37 85 26 128 -9 33 -40 87 -41 71z"/>
<path d="M4478 7308 c-8 -23 4 -97 17 -108 10 -8 12 -1 7 35 -3 30 -1 45 7 45
8 0 8 6 -1 20 -15 23 -24 25 -30 8z"/>
<path d="M8894 7298 c26 -41 29 -89 7 -131 -11 -22 -14 -36 -8 -34 19 6 37 49
37 90 0 40 -24 97 -40 97 -6 0 -4 -10 4 -22z"/>
<path d="M1781 7294 c0 -11 3 -14 6 -6 3 7 2 16 -1 19 -3 4 -6 -2 -5 -13z"/>
<path d="M1880 7284 c0 -14 -4 -22 -10 -19 -21 13 -50 -15 -50 -50 0 -36 20
-55 59 -55 19 0 21 6 21 75 0 43 -4 75 -10 75 -5 0 -10 -12 -10 -26z m5 -53
c8 -26 -4 -51 -26 -51 -14 0 -19 7 -19 28 0 16 3 32 7 35 12 13 32 7 38 -12z"/>
<path d="M2420 7235 c0 -43 4 -75 10 -75 6 0 10 32 10 75 0 43 -4 75 -10 75
-6 0 -10 -32 -10 -75z"/>
<path d="M2630 7294 c0 -8 5 -12 10 -9 6 4 8 11 5 16 -9 14 -15 11 -15 -7z"/>
<path d="M7426 7294 c-9 -24 -7 -107 4 -124 7 -10 10 9 10 63 0 78 -3 90 -14
61z"/>
<path d="M7470 7300 c0 -5 5 -10 11 -10 5 0 7 5 4 10 -3 6 -8 10 -11 10 -2 0
-4 -4 -4 -10z"/>
<path d="M7580 7283 c0 -26 -3 -30 -20 -26 -28 7 -50 -14 -50 -47 0 -34 19
-51 53 -48 23 2 25 6 30 68 2 36 0 69 -4 75 -5 5 -9 -4 -9 -22z m-6 -56 c8
-12 8 -22 0 -34 -16 -25 -38 -22 -42 5 -7 50 18 67 42 29z"/>
<path d="M8260 7300 c0 -5 5 -10 11 -10 5 0 7 5 4 10 -3 6 -8 10 -11 10 -2 0
-4 -4 -4 -10z"/>
<path d="M8741 7288 c-1 -23 -6 -28 -26 -28 -34 0 -53 -39 -37 -75 9 -20 18
-24 47 -23 l35 1 -1 56 c0 60 -17 121 -18 69z m-3 -72 c4 -32 -15 -51 -35 -34
-14 11 -18 50 -6 62 15 15 38 -1 41 -28z"/>
<path d="M8780 7301 c0 -6 5 -13 10 -16 6 -3 10 1 10 9 0 9 -4 16 -10 16 -5 0
-10 -4 -10 -9z"/>
<path d="M4240 7280 c-11 -11 -20 -29 -20 -40 0 -26 41 -53 66 -43 16 6 15 8
-10 13 -44 8 -45 30 -2 30 40 0 43 5 20 38 -19 27 -28 28 -54 2z m48 -17 c2
-8 -6 -13 -22 -13 -25 0 -33 10 -19 24 10 10 36 3 41 -11z"/>
<path d="M4343 7293 c-24 -9 -13 -23 13 -17 20 5 25 3 22 -7 -3 -8 -14 -15
-25 -17 -50 -7 -33 -63 18 -59 27 2 29 5 29 43 0 53 -19 73 -57 57z m41 -68
c-6 -16 -44 -21 -44 -7 0 14 12 22 31 22 12 0 16 -5 13 -15z"/>
<path d="M4646 7291 c5 -5 17 -11 27 -13 16 -3 16 -6 -8 -37 -14 -19 -25 -39
-25 -43 0 -4 18 -8 40 -8 22 0 40 5 40 10 0 6 -11 10 -25 10 -30 0 -31 4 -5
37 30 39 26 53 -17 53 -22 0 -33 -4 -27 -9z"/>
<path d="M5050 7248 c0 -27 5 -48 10 -48 6 0 10 14 10 32 0 17 7 39 16 49 14
16 13 17 -10 15 -24 -1 -26 -5 -26 -48z"/>
<path d="M5125 7280 c-15 -16 -17 -26 -9 -48 10 -28 48 -42 65 -25 5 5 -3 9
-18 8 -14 0 -28 6 -30 13 -3 8 7 12 31 12 40 0 47 17 20 44 -21 21 -37 20 -59
-4z m50 -10 c4 -6 -5 -10 -20 -10 -15 0 -24 4 -20 10 3 6 12 10 20 10 8 0 17
-4 20 -10z"/>
<path d="M5235 7290 c-4 -6 5 -10 19 -10 36 0 33 -17 -4 -25 -23 -5 -30 -12
-30 -31 0 -21 4 -24 38 -24 35 0 37 2 39 34 4 48 -42 89 -62 56z m45 -59 c0
-6 -5 -13 -10 -16 -15 -9 -43 3 -35 15 8 13 45 13 45 1z"/>
<path d="M5420 7294 c0 -4 8 -28 17 -55 15 -41 16 -52 5 -70 -11 -18 -11 -20
0 -17 13 4 56 108 57 137 1 21 -13 4 -25 -32 l-11 -32 -16 38 c-14 33 -27 48
-27 31z"/>
<path d="M5520 7289 c0 -6 9 -9 20 -6 26 7 25 -2 -5 -43 -14 -19 -25 -38 -25
-42 0 -4 18 -8 40 -8 44 0 55 17 15 22 l-25 3 25 37 c14 20 25 39 25 42 0 4
-16 6 -35 6 -19 0 -35 -5 -35 -11z"/>
<path d="M5782 7245 c0 -55 1 -57 8 -21 4 22 15 45 24 51 22 17 20 28 -3 15
-14 -7 -21 -6 -24 3 -3 6 -5 -15 -5 -48z"/>
<path d="M5862 7284 c-29 -20 -28 -59 2 -79 29 -19 54 -10 62 21 13 49 -27 84
-64 58z m43 -39 c0 -23 -4 -30 -20 -30 -21 0 -31 25 -21 51 11 28 41 12 41
-21z"/>
<path d="M6070 7280 c-24 -24 -25 -38 -4 -68 10 -14 24 -22 37 -20 31 5 31 24
1 23 -15 0 -29 6 -31 13 -3 8 7 12 31 12 40 0 47 17 20 44 -20 21 -30 20 -54
-4z m48 -17 c2 -8 -5 -13 -17 -13 -21 0 -35 13 -24 24 10 10 36 3 41 -11z"/>
<path d="M6173 7293 c-22 -8 -14 -43 12 -53 14 -5 25 -15 25 -21 0 -7 -9 -9
-25 -5 -29 7 -35 -10 -6 -19 48 -15 73 37 26 55 -34 13 -33 34 2 25 23 -5 25
-4 14 9 -14 16 -26 19 -48 9z"/>
<path d="M7202 7289 c16 -61 43 -129 51 -126 5 1 18 23 27 47 28 71 32 90 22
90 -6 0 -19 -26 -30 -57 l-19 -58 -17 52 c-10 29 -22 56 -28 59 -5 4 -8 0 -6
-7z"/>
<path d="M2562 7270 c-7 -11 -8 -20 -3 -20 6 0 11 -19 13 -42 2 -34 7 -44 23
-46 16 -3 18 -1 8 9 -7 7 -13 27 -13 45 0 18 6 35 13 37 10 4 10 6 0 6 -7 1
-13 8 -13 16 0 21 -13 19 -28 -5z"/>
<path d="M7719 7273 c-4 -69 7 -113 29 -113 12 0 13 3 4 12 -16 16 -16 78 1
78 9 0 8 3 -2 9 -7 5 -10 14 -7 20 4 6 0 11 -8 11 -9 0 -16 -8 -17 -17z"/>
<path d="M8833 7270 c-8 -12 -9 -21 -3 -25 6 -3 10 -24 10 -46 0 -33 3 -39 22
-39 20 0 20 1 5 18 -19 21 -22 57 -7 67 8 5 8 11 1 19 -6 7 -8 16 -4 19 3 4 2
7 -3 7 -5 0 -15 -9 -21 -20z"/>
<path d="M8041 7267 c0 -11 -10 -21 -21 -24 -23 -6 -27 -23 -5 -23 7 0 19 -8
24 -17 10 -17 10 -17 11 0 0 9 7 17 15 17 8 0 15 5 15 10 0 6 -6 10 -14 10 -8
0 -17 10 -19 23 -3 16 -5 17 -6 4z"/>
<path d="M2488 7263 c-28 -7 -21 -21 7 -15 18 3 25 0 25 -12 0 -9 -8 -16 -19
-16 -10 0 -24 -7 -31 -15 -18 -22 4 -45 41 -42 27 2 29 5 29 44 0 45 -18 63
-52 56z m32 -67 c0 -17 -27 -29 -35 -16 -4 6 -3 15 0 20 9 15 35 12 35 -4z"/>
<path d="M8787 7263 c-11 -10 -8 -103 3 -103 6 0 10 25 10 55 0 56 -1 60 -13
48z"/>
<path d="M1380 7208 c0 -26 5 -48 10 -48 6 0 10 17 10 38 0 31 5 41 23 49 20
10 20 11 -10 10 -33 0 -33 -1 -33 -49z"/>
<path d="M1450 7229 c0 -49 16 -69 55 -67 l34 1 -6 46 c-7 57 -13 65 -13 20 0
-19 -5 -40 -12 -47 -18 -18 -38 5 -38 44 0 19 -4 34 -10 34 -5 0 -10 -14 -10
-31z"/>
<path d="M1560 7209 c0 -59 16 -57 22 1 5 53 32 47 36 -7 2 -24 8 -43 13 -43
6 0 9 21 7 48 -3 47 -3 47 -40 50 l-38 3 0 -52z"/>
<path d="M1781 7211 c-1 -40 2 -52 10 -44 7 7 8 24 1 54 l-10 44 -1 -54z"/>
<path d="M1987 7254 c-11 -12 -8 -69 5 -82 16 -16 43 -15 58 3 11 13 8 14 -18
9 -25 -5 -31 -2 -37 16 -5 15 -2 28 8 38 14 13 18 13 33 1 15 -12 17 -12 12 1
-5 16 -49 26 -61 14z"/>
<path d="M2082 7248 c-28 -28 -3 -88 37 -88 25 0 41 20 41 50 0 31 -17 50 -45
50 -12 0 -26 -5 -33 -12z m56 -36 c3 -30 1 -33 -20 -30 -23 3 -34 27 -24 54
11 28 41 11 44 -24z"/>
<path d="M2180 7209 c0 -27 5 -49 10 -49 6 0 10 18 10 40 0 26 6 42 17 48 13
8 11 10 -10 10 -26 0 -27 -3 -27 -49z"/>
<path d="M2250 7210 c0 -27 5 -50 10 -50 6 0 10 18 10 40 0 27 6 42 18 49 14
9 13 10 -10 11 -27 0 -28 -2 -28 -50z"/>
<path d="M2331 7246 c-17 -20 -10 -66 11 -79 11 -8 23 -7 40 1 23 12 23 12 -3
7 -16 -3 -31 1 -38 9 -14 17 -4 26 31 26 31 0 33 3 18 31 -13 22 -43 25 -59 5z
m47 -14 c2 -7 -7 -12 -23 -12 -24 0 -26 2 -15 15 14 17 31 16 38 -3z"/>
<path d="M2630 7209 c0 -31 4 -48 10 -44 6 3 10 26 10 51 0 24 -4 44 -10 44
-5 0 -10 -23 -10 -51z"/>
<path d="M2682 7248 c-16 -16 -15 -63 2 -78 39 -31 96 25 70 68 -14 21 -55 27
-72 10z m53 -33 c0 -23 -4 -30 -20 -30 -21 0 -31 25 -21 51 11 28 41 12 41
-21z"/>
<path d="M2780 7208 c0 -30 4 -47 10 -43 6 3 10 22 10 41 0 22 6 37 15 41 22
8 28 -1 36 -50 l7 -42 -1 50 -2 50 -37 2 -38 1 0 -50z"/>
<path d="M7333 7253 c-7 -2 -13 -9 -13 -14 0 -6 7 -6 18 -1 18 10 42 5 42 -8
0 -4 -14 -10 -31 -14 -25 -5 -30 -10 -27 -28 2 -19 10 -23 40 -24 36 -2 36 -2
31 35 -8 63 -18 71 -60 54z m47 -51 c0 -15 -22 -30 -36 -25 -11 4 -12 9 -3 19
12 15 39 19 39 6z"/>
<path d="M7470 7210 c0 -27 5 -50 10 -50 6 0 10 23 10 50 0 28 -4 50 -10 50
-5 0 -10 -22 -10 -50z"/>
<path d="M7627 7253 c-14 -13 -7 -25 8 -13 15 13 45 7 45 -8 0 -5 -13 -12 -30
-15 -24 -5 -30 -12 -30 -32 0 -23 3 -25 41 -23 l40 1 -7 41 c-3 23 -8 44 -11
49 -5 9 -47 9 -56 0z m43 -57 c0 -21 -20 -30 -33 -17 -9 9 -8 14 3 21 21 14
30 12 30 -4z"/>
<path d="M7792 7248 c-7 -7 -12 -24 -12 -38 0 -52 61 -71 82 -25 23 51 -32
101 -70 63z m52 -21 c8 -12 8 -22 0 -34 -16 -25 -38 -22 -42 5 -7 50 18 67 42
29z"/>
<path d="M7889 7208 c3 -29 6 -42 8 -28 7 54 14 69 31 73 9 3 4 5 -13 6 l-30
1 4 -52z"/>
<path d="M8157 7253 c-11 -10 -8 -133 3 -133 6 0 10 9 10 20 0 15 7 20 25 20
34 0 53 39 37 75 -8 18 -19 25 -40 25 -16 0 -32 -3 -35 -7z m51 -15 c15 -15
15 -41 1 -55 -18 -18 -39 -3 -39 26 0 40 15 52 38 29z"/>
<path d="M8260 7210 c0 -27 5 -50 10 -50 6 0 10 23 10 50 0 28 -4 50 -10 50
-5 0 -10 -22 -10 -50z"/>
<path d="M8301 7233 c1 -41 16 -122 18 -95 1 16 7 22 25 22 17 0 27 9 36 29
17 43 0 71 -45 71 -32 0 -35 -3 -34 -27z m64 -18 c0 -23 -5 -31 -22 -33 -19
-3 -23 1 -23 26 0 33 8 44 30 40 9 -2 15 -14 15 -33z"/>
<path d="M8485 7250 c-4 -6 3 -9 16 -7 12 1 24 -4 26 -10 3 -8 -4 -13 -15 -13
-24 0 -46 -25 -39 -45 4 -9 19 -14 42 -13 33 1 35 3 35 34 0 18 -3 39 -6 48
-7 18 -49 22 -59 6z m40 -61 c-8 -12 -35 -12 -35 0 0 11 22 20 33 14 4 -2 5
-9 2 -14z"/>
<path d="M8578 7254 c-11 -10 -10 -56 2 -74 5 -8 23 -15 40 -15 30 -1 30 0 29
50 l-1 50 -8 -39 c-7 -38 -28 -62 -42 -48 -4 4 -8 24 -10 45 -2 22 -6 35 -10
31z"/>
<path d="M8400 7220 c0 -5 11 -10 25 -10 14 0 25 5 25 10 0 6 -11 10 -25 10
-14 0 -25 -4 -25 -10z"/>
<path d="M1660 7141 c0 -8 90 -3 99 5 2 2 -19 4 -47 4 -29 0 -52 -4 -52 -9z"/>
<path d="M2145 7038 c-3 -7 -6 -121 -7 -253 l-3 -240 -38 -2 c-21 0 -40 -3
-42 -5 -4 -4 103 -152 113 -155 4 -1 31 33 60 77 l52 80 -32 0 c-18 0 -39 4
-45 8 -9 6 -13 72 -15 252 -3 224 -4 245 -21 248 -9 2 -19 -2 -22 -10z"/>
<path d="M5088 6793 l-3 -248 -43 -5 -43 -5 38 -51 c21 -28 47 -64 59 -79 l20
-29 44 63 c58 83 61 101 15 101 l-35 0 0 250 0 250 -25 0 -25 0 -2 -247z"/>
<path d="M8038 6793 l-3 -248 -42 1 c-24 1 -43 -1 -43 -3 0 -3 25 -40 57 -84
38 -53 60 -76 67 -70 6 5 35 43 63 83 46 67 49 74 30 75 -12 0 -34 1 -49 2
l-28 1 0 245 0 245 -25 0 -25 0 -2 -247z"/>
<path d="M755 6329 c-38 -11 -104 -74 -121 -116 -11 -26 -14 -172 -14 -763 0
-711 1 -732 20 -770 23 -44 51 -74 95 -98 28 -16 308 -17 3814 -22 l3783 -5 2
-360 1 -360 -48 -5 -47 -5 56 -77 c31 -43 60 -78 65 -78 5 0 19 15 31 34 13
18 38 54 56 80 l33 46 -51 0 -50 0 2 363 3 362 550 5 550 5 39 24 c21 13 51
45 67 70 l29 45 0 738 c0 707 -1 740 -19 776 -25 48 -66 87 -113 106 -34 14
-474 16 -4370 15 -2449 0 -4346 -5 -4363 -10z m8721 -48 c48 -22 80 -60 94
-112 7 -25 10 -284 8 -747 l-3 -709 -28 -36 c-15 -20 -42 -45 -60 -55 -30 -16
-260 -17 -4337 -20 -2368 -1 -4324 0 -4347 3 -53 8 -100 45 -124 100 -17 38
-19 83 -19 745 l0 706 23 44 c25 50 59 78 108 90 19 4 1971 8 4339 9 4170 1
4306 0 4346 -18z"/>
<path d="M947 6191 c-16 -6 -16 -9 -5 -18 7 -6 22 -13 33 -15 11 -1 26 -8 33
-15 7 -7 19 -10 27 -7 8 4 15 1 15 -5 0 -6 13 -11 30 -11 32 0 34 -4 44 -92 3
-29 2 -48 -4 -48 -6 0 -10 -8 -10 -17 0 -16 2 -16 10 -3 8 11 9 7 4 -15 -9
-42 -26 -69 -19 -30 6 29 6 29 -10 -5 -9 -19 -23 -43 -33 -53 -13 -15 -14 -18
-2 -15 8 2 14 -3 12 -10 -5 -27 19 1 45 51 22 44 27 69 31 158 l4 106 -58 7
c-33 3 -65 7 -71 8 -7 1 -13 4 -13 8 0 13 -45 27 -63 21z"/>
<path d="M870 6164 c-19 -7 -52 -13 -72 -13 l-38 -1 0 -96 c0 -69 3 -93 11
-88 8 5 10 -1 7 -19 -3 -14 -2 -26 1 -25 19 2 24 -4 11 -12 -10 -6 -11 -10 -2
-10 6 0 12 -9 12 -20 0 -29 68 -100 117 -122 46 -20 72 -16 70 12 -1 15 -5 16
-19 9 -14 -8 -28 -3 -61 20 -80 55 -117 133 -117 247 0 64 7 74 50 74 27 0 70
21 64 31 -3 5 1 6 9 3 8 -3 18 -1 21 4 10 16 -27 20 -64 6z"/>
<path d="M5135 6120 c-3 -5 -5 -57 -3 -115 2 -102 3 -105 25 -105 23 0 23 2
23 115 0 107 -1 115 -19 115 -11 0 -23 -4 -26 -10z"/>
<path d="M5960 6010 c0 -113 1 -120 20 -120 19 0 20 7 20 120 0 113 -1 120
-20 120 -19 0 -20 -7 -20 -120z"/>
<path d="M3712 6110 c-25 -11 -41 -45 -34 -73 3 -11 28 -30 59 -44 38 -18 53
-30 51 -41 -5 -26 -47 -27 -69 -3 -39 42 -67 16 -31 -28 39 -49 132 -33 146
25 9 32 -22 70 -65 79 -32 7 -54 29 -44 45 10 15 55 12 61 -5 9 -22 44 -19 44
4 0 40 -64 62 -118 41z"/>
<path d="M4649 6116 c-2 -3 -4 -53 -2 -113 l2 -108 70 -3 c66 -3 71 -1 71 18
0 17 -6 20 -50 20 -49 0 -50 1 -50 30 0 29 2 30 46 30 38 0 45 3 42 18 -2 12
-15 18 -46 20 -37 3 -42 6 -42 28 0 22 4 24 51 24 43 0 50 3 47 18 -3 14 -16
18 -69 20 -35 2 -67 1 -70 -2z"/>
<path d="M5295 6048 c-4 -40 -5 -91 -3 -113 l3 -40 73 -3 c67 -3 72 -1 72 18
0 17 -6 20 -50 20 -49 0 -50 1 -50 29 0 28 3 30 43 33 29 2 42 8 42 18 0 10
-13 16 -42 18 -38 3 -43 6 -43 28 0 22 4 24 50 24 43 0 50 3 50 20 0 18 -7 20
-69 20 l-69 0 -7 -72z"/>
<path d="M900 6090 l-55 -17 3 -64 c4 -76 24 -122 67 -155 40 -30 53 -30 65
-1 5 12 9 16 9 9 1 -7 6 -10 11 -7 6 4 8 11 4 16 -3 5 -2 8 3 7 4 -2 9 0 11 5
1 4 11 16 22 27 15 15 20 33 20 74 0 30 3 61 6 69 4 10 -5 17 -33 22 -21 5
-41 8 -45 7 -5 -1 -8 3 -8 10 0 6 -7 4 -18 -5 -10 -10 -22 -14 -25 -11 -4 4 1
13 11 20 21 16 20 16 -48 -6z"/>
<path d="M3885 6035 c-29 -28 -33 -79 -10 -112 19 -26 67 -38 95 -23 30 16 19
36 -17 32 -18 -2 -35 3 -43 12 -11 14 -7 16 37 16 27 0 52 3 55 6 10 9 -11 68
-29 82 -26 19 -62 14 -88 -13z m75 -36 c0 -12 -47 -11 -55 0 -9 15 28 31 42
19 7 -6 13 -14 13 -19z"/>
<path d="M4064 6050 c-53 -21 -49 -127 7 -150 34 -14 75 -2 86 25 8 24 -4 30
-31 15 -38 -20 -58 -7 -54 37 2 31 7 39 26 41 12 2 22 -1 22 -7 0 -6 9 -11 20
-11 27 0 25 25 -2 44 -25 18 -42 19 -74 6z"/>
<path d="M4190 5995 c0 -84 17 -103 86 -101 l49 1 3 78 c2 63 0 78 -13 83 -23
9 -26 2 -32 -65 -5 -51 -9 -61 -24 -61 -11 0 -20 6 -20 13 -1 6 -3 19 -4 27
-1 8 -3 32 -4 53 -1 30 -5 37 -21 37 -18 0 -20 -7 -20 -65z"/>
<path d="M4360 5974 c0 -77 2 -84 20 -84 17 0 20 7 20 46 0 51 14 84 35 84 8
0 15 8 15 18 0 15 -8 19 -45 20 l-45 0 0 -84z"/>
<path d="M4492 6040 c-32 -30 -30 -93 4 -127 21 -21 32 -24 61 -20 41 7 58 20
48 36 -4 7 -19 9 -39 6 -23 -5 -36 -2 -45 9 -12 14 -10 16 10 17 35 1 81 7 85
12 9 9 -19 68 -36 77 -30 16 -64 12 -88 -10z m76 -28 c2 -8 -8 -12 -30 -12
-31 1 -32 1 -13 15 21 17 37 15 43 -3z"/>
<path d="M4801 6053 c0 -4 12 -42 27 -83 35 -98 54 -101 88 -11 29 77 31 104
7 99 -10 -2 -25 -22 -34 -47 l-16 -45 -15 45 c-10 32 -21 45 -36 47 -12 2 -22
0 -21 -5z"/>
<path d="M4985 6040 c-24 -26 -12 -37 25 -23 18 7 32 7 36 2 9 -15 -6 -29 -31
-29 -15 0 -31 -10 -41 -25 -15 -23 -15 -27 0 -50 14 -21 22 -24 73 -22 l57 2
-3 65 c-2 42 -8 71 -18 83 -22 23 -75 22 -98 -3z m70 -91 c0 -8 -10 -15 -22
-17 -25 -4 -33 22 -10 31 18 8 32 2 32 -14z"/>
<path d="M5470 5996 c0 -35 -3 -71 -6 -80 -5 -12 0 -16 19 -16 25 0 26 3 29
58 3 50 6 57 25 60 20 3 22 -1 25 -60 2 -48 7 -64 19 -66 12 -2 17 7 21 41 8
69 -1 107 -29 120 -18 8 -29 8 -43 -1 -12 -7 -21 -8 -25 -2 -3 6 -13 10 -21
10 -11 0 -14 -15 -14 -64z"/>
<path d="M5630 6054 c0 -3 10 -39 21 -79 22 -73 45 -99 68 -71 7 9 51 139 51
153 0 2 -10 3 -22 1 -15 -2 -24 -13 -31 -38 -13 -54 -23 -55 -37 -6 -9 34 -18
46 -31 46 -11 0 -19 -3 -19 -6z"/>
<path d="M5810 6038 c-25 -27 -27 -88 -2 -117 22 -28 80 -37 107 -18 26 20 13
32 -29 29 -20 -2 -38 4 -46 13 -11 13 -6 15 39 15 50 0 51 1 51 30 0 63 -77
94 -120 48z m75 -28 c8 -13 -20 -24 -41 -16 -20 8 -9 26 16 26 10 0 22 -5 25
-10z"/>
<path d="M6063 6045 c-24 -17 -39 -71 -28 -104 7 -22 52 -51 80 -51 9 0 27 11
40 25 69 68 -15 184 -92 130z m68 -39 c17 -37 4 -76 -26 -76 -33 0 -44 40 -21
75 21 31 33 32 47 1z"/>
<path d="M6212 5948 c3 -98 5 -113 21 -116 14 -3 17 4 17 33 0 35 2 37 26 31
56 -14 99 53 75 117 -14 35 -55 56 -81 39 -12 -7 -21 -8 -25 -2 -3 6 -13 10
-21 10 -12 0 -14 -19 -12 -112z m93 27 c0 -36 -2 -40 -25 -40 -20 0 -26 6 -28
28 -5 42 5 59 30 55 20 -3 23 -9 23 -43z"/>
<path d="M6406 6039 c-56 -44 -19 -149 53 -149 31 0 65 25 55 41 -3 5 -20 7
-38 4 -23 -5 -36 -2 -45 9 -12 14 -8 16 37 16 28 0 53 4 56 9 3 5 1 23 -5 40
-19 53 -67 66 -113 30z m72 -36 c2 -8 -6 -13 -22 -13 -17 0 -26 5 -26 16 0 19
41 16 48 -3z"/>
<path d="M1840 5425 c0 -60 3 -75 15 -75 12 0 15 15 15 75 0 60 -3 75 -15 75
-12 0 -15 -15 -15 -75z"/>
<path d="M1885 5490 c-3 -5 1 -10 9 -10 9 0 16 5 16 10 0 6 -4 10 -9 10 -6 0
-13 -4 -16 -10z"/>
<path d="M1990 5480 c0 -11 -6 -20 -13 -20 -22 0 -47 -34 -47 -62 0 -33 18
-47 58 -46 l32 1 0 74 c0 58 -3 73 -15 73 -8 0 -15 -9 -15 -20z m3 -69 c6 -24
-7 -46 -22 -37 -16 10 -14 56 3 56 7 0 16 -9 19 -19z"/>
<path d="M2220 5485 c0 -8 5 -15 10 -15 6 0 10 7 10 15 0 8 -4 15 -10 15 -5 0
-10 -7 -10 -15z"/>
<path d="M2719 5487 c-19 -10 -25 -21 -27 -59 -3 -52 14 -78 53 -78 34 0 55
26 55 68 0 42 -7 55 -36 70 -15 8 -27 7 -45 -1z m50 -39 c12 -33 -2 -73 -25
-73 -14 0 -20 8 -22 33 -2 19 -1 40 2 48 8 22 36 17 45 -8z"/>
<path d="M3450 5425 c0 -43 4 -75 10 -75 6 0 10 32 10 75 0 43 -4 75 -10 75
-6 0 -10 -32 -10 -75z"/>
<path d="M3867 5494 c-8 -8 1 -24 14 -24 5 0 9 7 9 15 0 15 -12 20 -23 9z"/>
<path d="M5100 5424 c0 -49 4 -74 11 -72 6 2 10 7 10 11 -1 4 -1 36 -1 72 0
37 -4 65 -10 65 -6 0 -10 -32 -10 -76z"/>
<path d="M5522 5489 c2 -6 8 -10 13 -10 5 0 11 4 13 10 2 6 -4 11 -13 11 -9 0
-15 -5 -13 -11z"/>
<path d="M6382 5489 c-36 -14 -29 -56 13 -76 19 -9 35 -21 35 -25 0 -18 -32
-20 -50 -3 -23 20 -34 16 -24 -9 3 -9 17 -19 29 -22 69 -17 91 41 29 78 -25
15 -32 24 -24 32 7 7 16 7 31 -2 23 -15 34 -10 26 11 -7 19 -37 26 -65 16z"/>
<path d="M6740 5474 c0 -14 -4 -22 -10 -19 -21 13 -50 -15 -50 -49 0 -40 14
-53 58 -53 l32 0 0 74 c0 58 -3 73 -15 73 -9 0 -15 -10 -15 -26z m0 -75 c0
-24 -4 -30 -17 -27 -22 4 -29 34 -13 53 17 21 30 9 30 -26z"/>
<path d="M6790 5427 l0 -74 36 2 c37 1 54 16 54 51 0 27 -32 56 -54 48 -12 -5
-16 0 -16 20 0 14 -4 26 -10 26 -6 0 -10 -31 -10 -73z m58 -24 c-3 -30 -25
-42 -34 -19 -9 22 2 46 21 46 12 0 15 -8 13 -27z"/>
<path d="M7002 5425 c-3 -63 -1 -75 12 -75 9 0 16 7 16 15 0 8 5 15 10 15 6 0
13 -7 16 -15 4 -8 13 -15 21 -15 11 0 13 5 8 18 -16 38 -17 53 -5 67 18 22 -8
20 -32 -2 -17 -15 -18 -14 -18 25 0 27 -5 42 -12 42 -9 0 -14 -23 -16 -75z"/>
<path d="M8334 5484 c3 -9 6 -42 6 -75 0 -33 4 -59 10 -59 6 0 10 32 10 75 0
62 -3 75 -16 75 -11 0 -14 -5 -10 -16z"/>
<path d="M8387 5494 c-8 -8 1 -24 14 -24 5 0 9 7 9 15 0 15 -12 20 -23 9z"/>
<path d="M1130 5420 c0 -56 3 -70 15 -70 12 0 15 14 15 70 0 56 -3 70 -15 70
-12 0 -15 -14 -15 -70z"/>
<path d="M1620 5475 c0 -8 9 -39 21 -70 21 -58 43 -71 53 -32 3 12 12 43 20
70 13 40 13 47 1 47 -8 0 -20 -18 -26 -40 -7 -22 -15 -40 -19 -40 -4 0 -12 18
-19 40 -11 39 -31 55 -31 25z"/>
<path d="M3210 5471 c-6 -12 -19 -20 -28 -19 -13 2 -18 -6 -22 -36 -7 -55 -28
-58 -32 -5 -4 59 -28 64 -28 6 0 -51 12 -64 58 -65 31 -1 32 0 32 44 0 28 4
43 10 39 6 -3 10 -17 10 -30 0 -36 10 -55 31 -55 10 0 19 5 19 10 0 6 -4 10
-10 10 -5 0 -10 14 -10 30 0 17 5 30 10 30 16 0 12 19 -9 41 l-19 21 -12 -21z"/>
<path d="M3337 5472 c-21 -23 -22 -71 -1 -100 19 -27 71 -27 88 0 15 25 -1 34
-24 13 -27 -24 -50 -5 -50 42 0 40 22 53 49 29 23 -20 40 -4 21 19 -17 21 -64
19 -83 -3z"/>
<path d="M4346 5468 c-45 -64 10 -142 74 -108 27 15 36 74 16 105 -21 33 -69
34 -90 3z m62 -10 c17 -17 15 -63 -3 -78 -30 -25 -57 26 -39 74 7 19 25 21 42
4z"/>
<path d="M4987 5472 c-35 -39 -10 -122 37 -122 26 0 64 25 53 36 -4 4 -19 1
-33 -6 -31 -17 -44 -3 -44 48 0 39 23 52 49 28 24 -21 38 -4 15 18 -21 21 -57
20 -77 -2z"/>
<path d="M8010 5421 c0 -39 4 -71 9 -71 5 0 11 10 13 22 4 33 36 35 48 4 5
-14 14 -26 20 -26 12 0 12 2 0 35 -7 18 -6 31 3 45 19 31 -2 54 -52 58 l-41 3
0 -70z m65 29 c0 -8 -8 -16 -17 -18 -13 -2 -18 3 -18 18 0 15 5 20 18 18 9 -2
17 -10 17 -18z"/>
<path d="M1506 5465 c-3 -9 -1 -38 5 -65 8 -39 15 -50 30 -50 10 0 19 5 19 10
0 6 -4 10 -10 10 -13 0 -13 57 0 65 12 7 -10 45 -26 45 -7 0 -15 -7 -18 -15z"/>
<path d="M2148 5463 c-2 -33 4 -78 13 -95 10 -19 39 -25 39 -8 0 6 -4 10 -10
10 -15 0 -12 57 3 64 10 5 10 7 0 12 -7 3 -13 12 -13 20 0 20 -30 17 -32 -3z"/>
<path d="M2926 5463 c-14 -49 27 -135 51 -109 4 5 2 11 -4 13 -16 6 -17 60 -2
65 8 3 8 10 -2 26 -17 26 -36 28 -43 5z"/>
<path d="M4565 5459 c-4 -13 -2 -25 5 -29 6 -4 11 -10 11 -14 -4 -31 2 -58 14
-63 21 -7 32 4 17 19 -14 14 -16 54 -2 63 12 7 -10 45 -27 45 -6 0 -15 -10
-18 -21z"/>
<path d="M4858 5468 c-3 -7 -2 -35 1 -63 5 -42 10 -51 29 -53 12 -2 22 1 22 7
0 6 -4 11 -10 11 -5 0 -10 16 -10 35 0 19 5 35 10 35 6 0 5 8 -2 20 -14 23
-34 26 -40 8z"/>
<path d="M1208 5452 c-26 -3 -28 -6 -28 -53 0 -60 23 -64 28 -6 5 53 32 50 32
-3 0 -29 4 -40 15 -40 11 0 15 12 15 45 0 49 -15 63 -62 57z"/>
<path d="M1313 5453 c-21 -4 -23 -10 -23 -74 0 -55 3 -69 15 -69 8 0 15 9 15
20 0 13 7 20 20 20 21 0 40 27 40 59 0 19 -25 52 -38 50 -4 -1 -17 -4 -29 -6z
m35 -50 c-4 -39 -28 -42 -28 -4 0 21 5 31 16 31 11 0 14 -8 12 -27z"/>
<path d="M1885 5408 c0 -32 5 -53 13 -55 9 -3 12 11 12 51 0 39 -4 56 -13 56
-9 0 -13 -16 -12 -52z"/>
<path d="M2062 5449 c-31 -12 -20 -28 15 -21 19 3 25 1 18 -6 -5 -5 -19 -12
-30 -14 -14 -2 -20 -11 -20 -28 0 -22 4 -25 43 -27 l42 -2 0 39 c0 22 -7 45
-16 54 -17 18 -20 18 -52 5z m38 -70 c0 -5 -7 -9 -15 -9 -15 0 -20 12 -9 23 8
8 24 -1 24 -14z"/>
<path d="M3024 5453 c-17 -3 -23 -14 -28 -50 -10 -72 -8 -93 9 -93 8 0 15 9
15 19 0 14 8 21 28 23 24 3 27 8 30 45 3 45 -13 62 -54 56z m36 -52 c-1 -16
-19 -33 -29 -27 -12 8 -15 49 -4 60 7 7 33 -20 33 -33z"/>
<path d="M3513 5453 c-24 -9 -14 -30 12 -25 15 2 25 0 25 -7 0 -6 -8 -11 -19
-11 -24 0 -45 -25 -37 -45 3 -10 19 -15 44 -15 38 0 39 1 40 39 1 31 -3 44
-20 55 -24 17 -26 17 -45 9z m32 -73 c-3 -5 -10 -10 -16 -10 -5 0 -9 5 -9 10
0 6 7 10 16 10 8 0 12 -4 9 -10z"/>
<path d="M3597 5454 c-1 -1 0 -25 1 -53 5 -60 22 -69 22 -11 0 53 27 56 32 3
4 -53 28 -56 28 -3 0 34 3 41 18 38 12 -3 17 -13 17 -41 0 -23 5 -37 13 -37 8
0 12 16 12 45 0 28 -5 47 -12 50 -16 4 -127 13 -131 9z"/>
<path d="M3765 5452 c-10 -10 -5 -142 5 -142 6 0 10 9 10 20 0 14 7 20 23 20
13 0 28 5 35 12 13 13 16 57 4 74 -7 12 -69 24 -77 16z m53 -49 c-4 -39 -28
-42 -28 -4 0 21 5 31 16 31 11 0 14 -8 12 -27z"/>
<path d="M4038 5449 c-13 -7 -16 -22 -14 -66 3 -64 17 -80 60 -69 39 10 33 48
-9 57 -16 4 -23 7 -14 8 21 1 36 20 41 50 2 19 -2 24 -22 26 -14 2 -33 -1 -42
-6z m37 -29 c0 -7 -6 -15 -12 -17 -8 -3 -13 4 -13 17 0 13 5 20 13 18 6 -3 12
-11 12 -18z m5 -80 c0 -5 -9 -10 -20 -10 -11 0 -20 5 -20 10 0 6 9 10 20 10
11 0 20 -4 20 -10z"/>
<path d="M4640 5384 c0 -59 3 -74 15 -74 8 0 15 9 15 20 0 13 7 20 20 20 32 0
52 56 31 89 -5 7 -25 15 -45 16 l-36 3 0 -74z m60 15 c0 -19 -5 -29 -15 -29
-15 0 -22 50 -9 63 12 12 24 -4 24 -34z"/>
<path d="M4817 5450 c-4 -8 -7 -28 -9 -45 -4 -45 -32 -39 -36 8 -2 21 -9 37
-16 37 -8 0 -10 -14 -6 -47 l5 -48 41 -2 41 -2 -4 47 c-6 60 -9 71 -16 52z"/>
<path d="M5167 5448 c-26 -14 -20 -29 8 -22 15 4 25 2 25 -5 0 -6 -8 -11 -19
-11 -24 0 -45 -25 -38 -44 4 -10 19 -14 46 -13 40 1 41 2 41 37 0 53 -28 78
-63 58z m33 -63 c0 -8 -7 -15 -15 -15 -26 0 -18 20 13 29 1 1 2 -6 2 -14z"/>
<path d="M5273 5452 c-20 -3 -23 -9 -23 -53 0 -60 18 -65 22 -6 2 29 8 42 18
42 10 0 16 -13 18 -42 4 -53 20 -56 24 -5 2 25 8 37 18 37 10 0 16 -12 18 -37
2 -21 7 -38 13 -38 12 0 12 87 -1 95 -13 8 -76 12 -107 7z"/>
<path d="M5432 5453 c-21 -4 -23 -9 -20 -70 2 -42 8 -68 16 -71 7 -2 12 6 12
22 0 19 4 24 15 20 41 -16 65 75 26 96 -11 5 -21 9 -23 9 -2 -1 -13 -4 -26 -6z
m43 -62 c-4 -12 -12 -20 -18 -18 -15 5 -21 33 -12 54 10 27 39 -8 30 -36z"/>
<path d="M5526 5453 c-3 -3 -6 -28 -6 -55 0 -36 4 -48 15 -48 11 0 15 12 15
49 0 47 -9 68 -24 54z"/>
<path d="M5593 5453 c-20 -4 -23 -11 -23 -54 0 -59 14 -64 26 -8 12 53 28 54
32 2 4 -58 32 -61 32 -4 0 36 -21 73 -38 70 -4 -1 -17 -4 -29 -6z"/>
<path d="M5697 5452 c-9 -2 -17 -9 -18 -15 -5 -53 -3 -104 5 -114 10 -16 40
-17 67 -3 27 15 8 50 -26 50 -14 0 -25 5 -25 10 0 6 9 10 20 10 11 0 23 8 26
18 3 9 9 24 13 32 6 12 2 15 -19 15 -14 0 -34 -1 -43 -3z m28 -42 c-5 -8 -11
-8 -17 -2 -6 6 -7 16 -3 22 5 8 11 8 17 2 6 -6 7 -16 3 -22z m5 -70 c0 -5 -7
-10 -15 -10 -8 0 -15 5 -15 10 0 6 7 10 15 10 8 0 15 -4 15 -10z"/>
<path d="M6598 5452 c-26 -3 -28 -6 -28 -53 0 -37 4 -49 15 -49 11 0 15 11 15
40 0 53 27 56 32 3 5 -55 28 -55 28 1 0 50 -15 64 -62 58z"/>
<path d="M6911 5444 c-11 -8 -21 -24 -21 -35 0 -56 50 -78 85 -39 38 42 -17
106 -64 74z m44 -44 c0 -36 -29 -33 -33 3 -3 23 0 28 15 25 12 -2 18 -12 18
-28z"/>
<path d="M8151 5444 c-23 -17 -28 -63 -9 -82 15 -15 54 -16 63 -2 4 6 -5 10
-19 10 -14 0 -26 5 -26 10 0 6 11 10 24 10 31 0 40 14 27 39 -15 27 -35 32
-60 15z m39 -24 c0 -5 -7 -10 -15 -10 -8 0 -15 5 -15 10 0 6 7 10 15 10 8 0
15 -4 15 -10z"/>
<path d="M8244 5446 c-15 -12 -17 -18 -8 -33 6 -10 21 -19 33 -21 11 -2 21 -8
21 -14 0 -6 -12 -8 -31 -4 -22 4 -29 2 -27 -7 7 -21 65 -21 77 0 12 23 3 38
-26 47 -13 4 -23 12 -23 17 0 12 14 11 27 -2 8 -8 13 -7 18 1 8 12 -10 30 -31
30 -5 0 -19 -6 -30 -14z"/>
<path d="M8390 5405 c0 -30 5 -55 10 -55 6 0 10 25 10 55 0 30 -4 55 -10 55
-5 0 -10 -25 -10 -55z"/>
<path d="M8447 5442 c-21 -23 -22 -65 -3 -82 19 -15 58 -10 64 9 3 9 -1 11
-16 7 -11 -4 -23 -2 -27 4 -4 6 6 10 24 10 26 0 31 4 31 25 0 14 -8 29 -19 35
-27 14 -35 13 -54 -8z m43 -22 c0 -5 -7 -10 -15 -10 -8 0 -15 5 -15 10 0 6 7
10 15 10 8 0 15 -4 15 -10z"/>
<path d="M8540 5404 c0 -30 5 -54 10 -54 6 0 10 12 10 26 0 32 18 66 31 59 5
-4 9 -24 9 -46 0 -28 4 -39 15 -39 11 0 15 11 15 38 0 50 -11 64 -54 67 l-36
3 0 -54z"/>
<path d="M8668 5449 c-21 -12 -24 -69 -6 -87 16 -16 43 -15 57 1 14 18 2 30
-16 15 -18 -14 -36 2 -31 28 3 14 11 18 31 16 31 -3 36 13 8 28 -23 12 -22 12
-43 -1z"/>
<path d="M8762 5444 c-45 -31 -11 -103 43 -90 14 4 25 11 25 16 0 6 -11 8 -24
4 -13 -3 -27 -1 -30 5 -5 7 4 11 23 11 26 0 31 4 31 25 0 14 -8 29 -19 35 -25
13 -22 13 -49 -6z m48 -24 c0 -5 -9 -10 -20 -10 -11 0 -20 5 -20 10 0 6 9 10
20 10 11 0 20 -4 20 -10z"/>
<path d="M1402 5403 l3 -48 40 0 40 0 3 48 c2 36 0 47 -12 47 -10 0 -16 -12
-18 -37 -2 -26 -8 -38 -18 -38 -10 0 -16 12 -18 38 -5 55 -24 45 -20 -10z"/>
<path d="M1747 5444 c-15 -16 -6 -26 18 -20 14 4 25 2 25 -4 0 -5 -8 -10 -19
-10 -24 0 -45 -25 -37 -45 4 -10 18 -14 46 -13 l41 1 -3 46 c-3 43 -5 46 -33
49 -17 2 -34 0 -38 -4z m43 -64 c0 -5 -7 -10 -15 -10 -8 0 -15 5 -15 10 0 6 7
10 15 10 8 0 15 -4 15 -10z"/>
<path d="M2220 5400 c0 -27 5 -50 10 -50 6 0 10 23 10 50 0 28 -4 50 -10 50
-5 0 -10 -22 -10 -50z"/>
<path d="M2272 5438 c-27 -27 -5 -88 31 -88 30 0 47 18 47 50 0 31 -17 50 -45
50 -12 0 -26 -5 -33 -12z m53 -38 c0 -16 -6 -26 -17 -28 -14 -3 -18 3 -18 28
0 25 4 31 18 28 11 -2 17 -12 17 -28z"/>
<path d="M2370 5399 c0 -60 23 -65 28 -6 5 53 32 50 32 -3 0 -29 4 -40 15 -40
10 0 15 10 15 34 0 56 -8 66 -51 66 l-39 0 0 -51z"/>
<path d="M2820 5406 c0 -48 10 -56 60 -53 22 2 25 7 28 50 2 36 0 47 -12 47
-10 0 -16 -12 -18 -37 -4 -52 -28 -56 -28 -4 0 30 -4 41 -15 41 -11 0 -15 -12
-15 -44z"/>
<path d="M3870 5400 c0 -27 5 -50 10 -50 6 0 10 23 10 50 0 28 -4 50 -10 50
-5 0 -10 -22 -10 -50z"/>
<path d="M3910 5401 c0 -39 4 -51 15 -51 11 0 15 11 15 40 0 53 27 56 32 3 2
-20 9 -38 16 -41 10 -3 12 8 10 44 l-3 49 -42 3 -43 3 0 -50z"/>
<path d="M4460 5419 c0 -49 16 -69 55 -69 l35 0 0 50 c0 38 -4 50 -15 50 -11
0 -15 -11 -15 -40 0 -29 -4 -40 -15 -40 -11 0 -15 11 -15 40 0 29 -4 40 -15
40 -10 0 -15 -10 -15 -31z"/>
<path d="M6475 5441 c-7 -12 0 -14 28 -12 27 3 20 -16 -9 -23 -19 -5 -25 -12
-22 -29 2 -18 10 -22 41 -24 l38 -1 -3 46 c-3 45 -5 47 -35 50 -17 2 -34 -2
-38 -7z m50 -62 c-8 -12 -35 -12 -35 0 0 11 22 20 33 14 4 -2 5 -9 2 -14z"/>
<path d="M1395 5250 c-21 -41 -21 -114 0 -146 22 -35 30 -23 11 15 -20 38 -20
72 -1 118 19 46 12 55 -10 13z"/>
<path d="M2933 5254 c-23 -35 -23 -112 0 -148 25 -37 31 -28 12 17 -19 46 -19
78 -1 122 18 41 13 45 -11 9z"/>
<path d="M4420 5248 c-27 -45 -27 -118 1 -149 l20 -24 -11 24 c-17 33 -14 114
5 150 21 41 10 40 -15 -1z"/>
<path d="M2156 5233 c17 -50 17 -76 -1 -120 -13 -31 -13 -34 0 -23 8 7 20 30
26 51 10 32 9 46 -5 84 -21 54 -39 61 -20 8z"/>
<path d="M3707 5228 c14 -41 12 -66 -12 -133 -6 -17 -4 -17 14 4 24 27 29 103
9 146 -18 41 -27 29 -11 -17z"/>
<path d="M5355 5238 c19 -48 19 -91 -2 -131 -15 -29 -15 -31 0 -18 38 31 39
133 2 170 -15 15 -15 13 0 -21z"/>
<path d="M5702 5243 c-6 -16 -13 -36 -16 -47 -8 -24 10 -90 29 -106 13 -11 13
-8 0 23 -19 46 -19 90 0 127 9 17 11 30 6 30 -5 0 -13 -12 -19 -27z"/>
<path d="M7485 5238 c19 -47 19 -85 0 -122 -20 -37 -12 -46 10 -12 22 34 17
129 -9 154 -16 16 -16 15 -1 -20z"/>
<path d="M7644 5245 c-21 -33 -22 -107 0 -140 23 -35 31 -26 11 11 -18 35 -18
67 -1 117 16 43 13 47 -10 12z"/>
<path d="M9214 5248 c9 -12 16 -34 16 -47 0 -18 3 -22 11 -14 12 12 -14 83
-31 83 -7 0 -5 -9 4 -22z"/>
<path d="M1700 5235 c0 -17 -5 -25 -18 -25 -24 0 -42 -19 -42 -44 0 -33 15
-48 49 -50 l31 -2 0 73 c0 42 -4 73 -10 73 -5 0 -10 -11 -10 -25z m-2 -67 c-3
-36 -30 -46 -36 -15 -5 26 5 47 23 47 12 0 15 -8 13 -32z"/>
<path d="M2005 5249 c-4 -6 -5 -13 -2 -16 7 -7 27 6 27 18 0 12 -17 12 -25 -2z"/>
<path d="M3250 5235 c0 -20 -5 -25 -25 -25 -14 0 -29 -8 -35 -19 -23 -43 -5
-73 44 -77 l36 -3 0 74 c0 43 -4 75 -10 75 -5 0 -10 -11 -10 -25z m-2 -68 c2
-18 -2 -29 -13 -33 -24 -9 -39 10 -31 41 9 35 40 30 44 -8z"/>
<path d="M4980 5183 c0 -77 15 -94 22 -23 4 50 32 48 36 -2 4 -50 22 -49 22 1
0 42 -18 65 -44 55 -12 -5 -16 0 -16 20 0 14 -4 26 -10 26 -6 0 -10 -32 -10
-77z"/>
<path d="M5870 5190 c0 -40 4 -70 10 -70 6 0 10 30 10 70 0 40 -4 70 -10 70
-6 0 -10 -30 -10 -70z"/>
<path d="M5922 5190 c0 -48 2 -66 7 -50 4 14 5 48 1 75 -7 47 -7 45 -8 -25z"/>
<path d="M6273 5190 c0 -41 2 -58 4 -37 2 20 2 54 0 75 -2 20 -4 3 -4 -38z"/>
<path d="M7340 5234 c0 -16 -5 -24 -12 -21 -26 9 -48 -13 -48 -48 0 -38 19
-54 56 -47 23 4 24 8 24 73 0 39 -4 69 -10 69 -5 0 -10 -12 -10 -26z m-5 -69
c0 -33 -28 -47 -39 -19 -10 25 3 56 22 52 11 -2 17 -13 17 -33z"/>
<path d="M8030 5245 c0 -8 5 -15 10 -15 6 0 10 7 10 15 0 8 -4 15 -10 15 -5 0
-10 -7 -10 -15z"/>
<path d="M1440 5185 c0 -37 4 -65 10 -65 6 0 10 11 10 25 0 21 5 25 28 25 32
0 52 16 52 42 0 22 -29 38 -69 38 l-31 0 0 -65z m75 20 c0 -31 -49 -28 -53 3
-3 20 0 23 25 20 20 -2 28 -8 28 -23z"/>
<path d="M2980 5186 c0 -37 4 -66 10 -66 6 0 10 11 10 24 0 20 6 25 31 28 71
7 63 71 -10 76 l-41 3 0 -65z m75 19 c0 -14 -8 -21 -27 -23 -24 -3 -28 0 -28
23 0 23 4 26 28 23 19 -2 27 -9 27 -23z"/>
<path d="M4484 5235 c-16 -13 -16 -14 -1 -9 15 5 17 -1 17 -55 0 -34 4 -61 10
-61 6 0 10 30 10 70 0 39 -4 70 -8 70 -5 0 -17 -7 -28 -15z"/>
<path d="M4582 5238 c-17 -17 -15 -93 4 -112 19 -19 25 -20 48 -3 13 10 17 24
14 67 -3 50 -5 55 -28 58 -14 2 -31 -3 -38 -10z m53 -19 c11 -35 -4 -91 -23
-87 -17 3 -29 65 -18 94 8 21 34 17 41 -7z"/>
<path d="M4730 5185 c0 -37 4 -65 10 -65 6 0 10 11 10 23 0 39 12 39 38 1 31
-46 41 -36 12 11 l-23 37 22 29 c29 39 10 37 -23 -2 l-26 -31 0 31 c0 17 -4
31 -10 31 -6 0 -10 -28 -10 -65z"/>
<path d="M5781 5229 c-5 -13 -17 -43 -26 -67 -18 -45 -15 -69 5 -33 13 26 55
28 69 4 20 -37 21 -3 1 48 -27 69 -37 78 -49 48z m29 -51 c0 -10 -4 -18 -9
-18 -16 0 -23 19 -16 41 6 17 9 19 16 8 5 -8 9 -22 9 -31z"/>
<path d="M6310 5239 c0 -5 5 -7 10 -4 6 3 10 8 10 11 0 2 -4 4 -10 4 -5 0 -10
-5 -10 -11z"/>
<path d="M6570 5235 c-21 -25 -17 -85 8 -105 24 -20 57 -16 67 7 9 24 -3 29
-19 8 -29 -40 -70 20 -47 71 12 28 36 31 50 7 5 -10 13 -15 17 -11 11 12 -17
38 -41 38 -12 0 -28 -7 -35 -15z"/>
<path d="M7695 5185 c0 -36 3 -65 8 -65 4 0 7 11 7 25 0 15 6 25 15 25 8 0 22
-11 31 -25 9 -14 20 -25 25 -25 5 0 2 11 -6 24 -14 20 -14 28 -3 45 18 30 0
55 -43 59 l-34 3 0 -66z m63 27 c3 -18 -1 -22 -22 -22 -19 0 -26 5 -26 18 0
39 43 43 48 4z"/>
<path d="M8450 5240 c0 -5 9 -10 20 -10 18 0 20 -7 20 -61 0 -37 4 -58 10 -54
6 3 10 31 10 61 0 41 4 54 15 54 8 0 15 5 15 10 0 6 -20 10 -45 10 -25 0 -45
-4 -45 -10z"/>
<path d="M8560 5239 c0 -5 5 -7 10 -4 6 3 10 8 10 11 0 2 -4 4 -10 4 -5 0 -10
-5 -10 -11z"/>
<path d="M1942 5220 c-7 -12 -8 -20 -2 -20 5 0 10 -18 10 -39 0 -38 22 -63 35
-41 4 6 1 10 -4 10 -15 0 -14 67 2 73 10 4 10 6 0 6 -7 1 -13 8 -13 16 0 21
-13 19 -28 -5z"/>
<path d="M3501 5228 c0 -9 -7 -19 -13 -21 -10 -4 -10 -6 0 -6 7 -1 12 -16 12
-40 0 -22 5 -43 11 -46 16 -11 19 -2 10 37 -6 23 -5 40 2 47 8 8 8 11 0 11 -6
0 -14 8 -16 18 -4 15 -5 15 -6 0z"/>
<path d="M6448 5223 c-2 -10 -1 -36 2 -58 4 -30 10 -40 25 -42 11 -2 14 0 8 3
-7 3 -13 21 -13 39 0 18 6 36 13 38 10 4 10 6 0 6 -7 1 -13 8 -13 16 0 21 -17
19 -22 -2z"/>
<path d="M7903 5226 c-6 -10 -9 -26 -7 -35 13 -67 15 -71 37 -70 17 1 18 2 5
6 -13 3 -18 14 -18 38 0 24 5 35 18 38 15 4 15 5 0 6 -9 0 -18 9 -20 19 -3 16
-5 16 -15 -2z"/>
<path d="M9051 5221 c-7 -13 -8 -22 -1 -26 5 -3 10 -22 10 -41 0 -26 4 -34 18
-33 10 0 12 3 5 6 -15 5 -18 70 -4 75 5 2 4 11 -4 21 -13 18 -14 18 -24 -2z"/>
<path d="M8340 5211 c0 -12 -7 -21 -15 -21 -8 0 -15 -4 -15 -10 0 -5 6 -10 14
-10 8 0 17 -8 19 -17 4 -15 5 -16 6 -2 0 9 11 20 24 23 l22 7 -23 9 c-13 6
-21 14 -17 19 3 5 1 12 -5 16 -5 3 -10 -3 -10 -14z"/>
<path d="M1764 5204 c-18 -13 -17 -14 9 -8 20 5 27 2 27 -9 0 -8 -13 -17 -30
-20 -33 -7 -40 -30 -14 -45 9 -5 27 -7 40 -4 20 4 24 10 24 43 0 47 -26 67
-56 43z m36 -54 c0 -12 -28 -25 -36 -17 -9 9 6 27 22 27 8 0 14 -5 14 -10z"/>
<path d="M1863 5212 c-20 -3 -23 -10 -23 -48 0 -53 18 -59 22 -7 2 27 8 39 21
41 13 3 17 -4 17 -32 0 -19 5 -38 10 -41 6 -4 10 10 10 34 0 44 -17 60 -57 53z"/>
<path d="M2060 5200 c-21 -21 -23 -29 -14 -54 14 -36 74 -43 74 -9 0 13 -3 13
-15 3 -21 -18 -45 -5 -45 25 0 30 24 43 45 25 12 -10 15 -10 15 3 0 8 -7 18
-16 21 -22 8 -22 8 -44 -14z"/>
<path d="M3308 5213 c-10 -2 -18 -9 -18 -14 0 -5 11 -7 25 -3 33 8 33 -13 1
-26 -13 -5 -27 -14 -31 -20 -11 -18 15 -39 46 -37 28 2 29 4 29 48 0 34 -5 49
-16 53 -9 3 -16 5 -17 5 -1 -1 -10 -3 -19 -6z m32 -68 c0 -8 -6 -15 -14 -15
-17 0 -28 14 -19 24 12 12 33 6 33 -9z"/>
<path d="M3420 5211 c-8 -6 -17 -8 -21 -6 -10 7 -19 -79 -8 -89 5 -6 9 3 9 26
0 36 21 65 40 53 5 -3 10 -24 10 -46 0 -24 4 -38 10 -34 16 10 12 72 -6 89
-18 19 -15 18 -34 7z"/>
<path d="M3616 5207 c-32 -24 -17 -97 20 -97 14 0 47 30 40 37 -2 2 -14 -2
-25 -9 -18 -11 -23 -11 -31 2 -5 8 -10 20 -10 25 0 6 5 17 10 25 8 12 13 13
30 2 22 -13 27 -3 8 16 -15 15 -20 15 -42 -1z"/>
<path d="M6061 5204 c-1 -29 19 -84 30 -84 5 0 12 13 15 30 7 32 24 32 24 0 0
-34 20 -32 35 4 21 50 17 79 -4 31 l-18 -40 -6 33 c-8 41 -24 41 -35 0 -8 -29
-10 -30 -17 -13 -3 11 -10 29 -15 40 -8 20 -9 20 -9 -1z"/>
<path d="M6688 5209 c-22 -13 -24 -62 -2 -83 18 -19 20 -19 45 -6 13 7 19 21
19 45 0 24 -6 38 -19 45 -23 12 -22 12 -43 -1z m37 -44 c0 -43 -29 -40 -33 3
-3 28 0 33 15 30 13 -2 18 -12 18 -33z"/>
<path d="M6793 5212 c-20 -3 -23 -10 -23 -48 0 -54 18 -59 22 -6 4 55 31 50
39 -8 6 -41 6 -42 8 -10 3 75 47 82 54 8 l4 -43 1 46 c2 51 -19 82 -40 61 -6
-6 -18 -8 -27 -4 -9 5 -26 6 -38 4z"/>
<path d="M6957 5208 c-6 -4 -15 -4 -19 -2 -4 3 -7 -16 -6 -43 1 -35 2 -39 5
-16 4 34 26 59 43 48 5 -3 11 -23 11 -43 l2 -37 6 40 c4 27 12 41 24 43 14 3
17 -4 17 -37 0 -23 5 -41 10 -41 15 0 12 77 -2 87 -16 9 -76 10 -91 1z"/>
<path d="M7103 5213 c-23 -9 -14 -20 12 -15 35 6 31 -14 -5 -27 -51 -17 -31
-64 23 -54 22 4 27 11 27 35 0 53 -21 76 -57 61z m35 -65 c-7 -19 -38 -22 -38
-4 0 10 9 16 21 16 12 0 19 -5 17 -12z"/>
<path d="M7180 5168 c0 -57 17 -65 22 -11 2 27 8 39 21 41 14 3 17 -4 17 -37
0 -23 5 -41 10 -41 14 0 12 76 -2 88 -7 6 -25 10 -40 9 -26 -2 -28 -5 -28 -49z"/>
<path d="M7396 5204 c-19 -19 -13 -32 21 -45 32 -12 19 -32 -16 -25 -24 6 -25
5 -8 -8 25 -20 57 -9 57 19 0 16 -7 25 -25 29 -14 4 -25 11 -25 17 0 7 10 9
25 5 30 -8 33 -1 6 14 -15 7 -23 6 -35 -6z"/>
<path d="M8623 5212 c-20 -3 -23 -9 -23 -55 0 -57 16 -55 22 3 5 53 31 46 39
-10 6 -43 6 -43 7 -9 2 36 22 66 35 52 4 -3 7 -21 7 -40 0 -18 5 -33 10 -33 6
0 10 17 10 39 0 43 -23 72 -42 53 -6 -6 -18 -8 -27 -4 -9 5 -26 6 -38 4z"/>
<path d="M8772 5204 c-28 -20 -26 -61 4 -80 17 -12 23 -12 40 1 18 13 17 14
-10 12 -16 -1 -31 4 -33 11 -3 8 6 12 26 12 35 0 41 19 15 44 -19 19 -15 19
-42 0z m38 -19 c0 -8 -9 -15 -20 -15 -20 0 -26 11 -13 23 12 13 33 7 33 -8z"/>
<path d="M1568 5160 c15 -48 15 -51 -4 -65 -17 -13 -17 -14 -2 -15 20 0 34 22
53 86 14 47 3 62 -13 17 l-9 -28 -13 28 c-22 45 -29 31 -12 -23z"/>
<path d="M2013 5160 c0 -30 2 -43 4 -27 2 15 2 39 0 55 -2 15 -4 2 -4 -28z"/>
<path d="M3107 5163 c13 -37 14 -50 4 -66 -10 -15 -10 -18 1 -15 15 5 62 128
48 128 -5 0 -12 -11 -16 -25 -3 -14 -10 -25 -14 -25 -4 0 -11 11 -14 25 -4 14
-11 25 -16 25 -5 0 -2 -21 7 -47z"/>
<path d="M3563 5160 c0 -30 2 -43 4 -27 2 15 2 39 0 55 -2 15 -4 2 -4 -28z"/>
<path d="M4890 5189 c-14 -26 -6 -65 16 -73 18 -7 54 10 54 26 0 7 -5 6 -15
-2 -21 -18 -45 -5 -45 25 0 29 27 45 40 24 5 -7 12 -10 15 -7 12 12 -6 28 -30
28 -14 0 -29 -9 -35 -21z"/>
<path d="M5085 5201 c-3 -5 -1 -12 5 -16 5 -3 10 -1 10 4 0 6 9 11 20 11 30 0
24 -20 -10 -31 -29 -11 -44 -47 -20 -50 61 -8 70 -4 70 28 0 49 -9 63 -40 63
-16 0 -31 -4 -35 -9z m55 -51 c0 -12 -28 -25 -36 -17 -9 9 6 27 22 27 8 0 14
-5 14 -10z"/>
<path d="M5180 5163 c0 -23 5 -43 10 -43 6 0 10 16 10 35 0 28 5 38 23 44 19
8 18 9 -10 9 -32 -1 -33 -2 -33 -45z"/>
<path d="M5257 5203 c-14 -14 -6 -34 18 -43 14 -5 25 -15 25 -21 0 -7 -9 -9
-25 -5 -14 4 -25 4 -25 2 0 -11 40 -26 54 -20 25 10 19 43 -9 54 -34 13 -33
34 1 26 17 -5 23 -3 19 4 -7 11 -48 14 -58 3z"/>
<path d="M5964 5196 c-3 -8 -4 -27 -2 -43 3 -25 7 -28 38 -28 34 0 35 1 35 40
0 38 -2 40 -33 43 -21 2 -34 -2 -38 -12z m51 -32 c0 -32 -21 -39 -38 -12 -8
12 -7 21 3 32 19 24 35 14 35 -20z"/>
<path d="M6310 5165 c0 -25 5 -45 10 -45 6 0 10 20 10 45 0 25 -4 45 -10 45
-5 0 -10 -20 -10 -45z"/>
<path d="M6357 5197 c-7 -19 4 -33 31 -41 30 -10 17 -29 -15 -21 -16 4 -22 2
-18 -5 9 -15 62 -12 68 3 7 19 -4 33 -30 41 -32 10 -29 30 3 22 17 -5 23 -3
19 4 -9 15 -52 12 -58 -3z"/>
<path d="M7812 5198 c-17 -17 -15 -54 4 -72 19 -20 25 -20 50 -1 18 14 17 14
-13 9 -26 -5 -33 -3 -33 10 0 11 9 16 30 16 31 0 35 6 24 34 -7 19 -45 21 -62
4z m48 -13 c0 -8 -9 -15 -20 -15 -20 0 -26 11 -13 23 12 13 33 7 33 -8z"/>
<path d="M7960 5163 c0 -23 5 -43 10 -43 6 0 10 16 10 35 0 28 5 38 23 44 19
8 18 9 -10 9 -32 -1 -33 -2 -33 -45z"/>
<path d="M8030 5165 c0 -25 5 -45 10 -45 6 0 10 20 10 45 0 25 -4 45 -10 45
-5 0 -10 -20 -10 -45z"/>
<path d="M8077 5203 c-9 -8 -9 -46 -1 -67 7 -18 59 -22 69 -6 4 7 -2 9 -17 5
-16 -4 -29 -1 -37 9 -12 14 -9 16 23 16 36 0 41 5 30 34 -6 16 -54 22 -67 9z
m53 -16 c0 -7 -9 -13 -20 -14 -20 -2 -26 8 -13 20 11 12 33 8 33 -6z"/>
<path d="M8177 5203 c-14 -14 -6 -34 18 -43 35 -13 33 -34 -2 -26 -26 6 -27 5
-9 -8 14 -11 24 -12 37 -5 27 14 24 38 -6 49 -34 13 -33 34 1 26 17 -5 23 -3
19 4 -7 11 -48 14 -58 3z"/>
<path d="M8563 5160 c0 -30 2 -43 4 -27 2 15 2 39 0 55 -2 15 -4 2 -4 -28z"/>
<path d="M8862 5198 c-28 -28 -10 -78 29 -78 23 0 30 6 35 27 12 46 -33 82
-64 51z m43 -34 c0 -19 -6 -30 -17 -32 -14 -3 -18 3 -18 26 0 16 3 32 7 36 14
13 28 -1 28 -30z"/>
<path d="M8951 5173 c-1 -32 4 -45 18 -53 13 -6 22 -7 26 0 3 5 12 7 20 3 12
-4 15 5 15 41 0 55 -17 62 -22 9 -5 -57 -34 -57 -46 -1 l-10 43 -1 -42z"/>
<path d="M9127 5203 c-15 -14 -6 -34 19 -43 32 -13 21 -34 -15 -26 -24 6 -25
5 -8 -8 10 -8 27 -12 37 -9 28 7 25 41 -5 55 -33 15 -32 32 1 24 17 -5 23 -3
19 4 -7 11 -38 14 -48 3z"/>
<path d="M6205 5170 c3 -5 13 -10 21 -10 8 0 14 5 14 10 0 6 -9 10 -21 10 -11
0 -17 -4 -14 -10z"/>
<path d="M9270 5167 c-14 -6 -29 -17 -33 -25 -5 -7 -20 -25 -35 -40 -16 -17
-26 -37 -26 -52 2 -33 -25 -90 -42 -90 -19 0 -20 -200 -2 -218 7 -7 8 -12 4
-12 -5 0 -3 -7 4 -15 10 -12 42 -15 164 -15 105 0 156 4 164 12 8 8 12 51 12
129 0 94 -3 121 -16 133 -8 9 -19 16 -24 16 -5 0 -11 8 -13 18 -4 16 -5 16 -6
0 0 -10 -7 -18 -13 -19 -42 -2 -193 3 -197 7 -10 10 0 89 14 104 8 9 15 22 15
29 0 7 5 9 12 5 7 -4 8 -3 4 4 -5 8 14 10 65 7 62 -4 69 -2 58 11 -7 8 -18 13
-26 10 -8 -3 -11 -1 -8 4 8 14 -44 11 -75 -3z m74 -202 c-4 -8 -10 -15 -15
-15 -4 0 -6 7 -3 15 4 8 10 15 15 15 4 0 6 -7 3 -15z m-46 -26 c-20 -13 -28
-11 -22 5 3 8 12 12 21 9 12 -5 12 -7 1 -14z m27 -19 c-4 -14 -2 -20 8 -20 15
0 17 -47 2 -71 -5 -8 -8 -24 -6 -36 1 -13 -5 -30 -13 -39 -9 -8 -16 -11 -16
-5 0 6 -7 11 -15 11 -11 0 -15 11 -15 36 0 19 -4 33 -9 30 -4 -3 -17 2 -27 10
-17 14 -17 15 -1 10 12 -4 17 0 17 14 0 11 -5 20 -11 20 -5 0 -7 -4 -4 -10 3
-5 1 -10 -4 -10 -16 0 -13 36 4 50 13 11 14 10 9 -5 -5 -13 -3 -16 7 -13 8 3
13 10 12 15 -1 6 9 8 22 5 17 -3 27 1 31 12 9 23 17 20 9 -4z m85 -122 c0 -9
4 -8 10 2 8 13 10 12 11 -5 1 -11 2 -28 1 -37 -1 -10 2 -18 7 -18 5 0 11 -6
14 -14 4 -9 -2 -13 -18 -13 -15 0 -22 4 -18 13 4 10 -2 11 -26 4 -27 -7 -31
-6 -31 10 0 11 7 17 18 16 13 -1 16 5 14 27 -2 15 1 27 7 27 6 0 11 -6 11 -12z"/>
<path d="M9360 5126 c0 -2 7 -9 15 -16 13 -11 14 -10 9 4 -5 14 -24 23 -24 12z"/>
<path d="M9400 5115 c0 -8 4 -15 10 -15 5 0 7 7 4 15 -4 8 -8 15 -10 15 -2 0
-4 -7 -4 -15z"/>
<path d="M936 4159 c-48 -8 -86 -36 -108 -80 -17 -32 -18 -96 -18 -914 l0
-880 23 -39 c45 -80 11 -76 729 -76 409 0 639 -4 643 -10 4 -6 -1 -7 -11 -3
-16 6 -15 3 3 -23 76 -105 234 -190 407 -217 80 -13 86 -13 86 3 0 13 -18 20
-87 34 -152 30 -302 106 -361 184 l-25 32 1697 0 c1643 0 1696 -1 1687 -18
-45 -84 -235 -177 -423 -207 -24 -4 -38 -11 -38 -20 0 -21 42 -19 152 9 135
34 228 84 311 167 l69 69 405 0 c433 0 433 0 479 52 12 12 26 38 33 57 15 46
16 1737 0 1778 -15 41 -67 91 -103 100 -36 9 -5495 11 -5550 2z m827 -237 c23
-20 22 -52 -2 -52 -10 0 -22 7 -25 16 -4 10 -15 14 -33 12 -26 -3 -28 -7 -31
-51 -3 -52 9 -77 39 -77 11 0 19 2 19 4 0 2 3 11 6 20 4 11 1 16 -10 16 -9 0
-16 7 -16 16 0 12 9 14 38 12 30 -2 38 -7 40 -26 2 -13 -4 -34 -12 -48 -13
-19 -25 -24 -61 -24 -55 0 -79 21 -88 76 -10 60 4 96 43 116 37 19 63 16 93
-10z m498 1 c1 -16 1 -32 0 -36 -1 -5 8 -6 19 -2 13 4 31 0 45 -9 22 -14 25
-24 25 -76 0 -53 -2 -60 -19 -60 -17 0 -20 8 -23 53 -3 44 -6 52 -23 52 -17 0
-19 -6 -16 -52 2 -51 1 -53 -23 -53 l-26 0 0 105 c0 98 1 105 20 105 15 0 20
-7 21 -27z m619 -78 c0 -98 -1 -105 -20 -105 -19 0 -20 7 -20 105 0 98 1 105
20 105 19 0 20 -7 20 -105z m173 91 c7 -17 -1 -26 -24 -26 -21 0 -33 15 -24
30 9 15 42 12 48 -4z m1397 -21 c0 -33 2 -34 28 -29 44 9 62 -16 62 -87 0 -56
-1 -59 -25 -59 -24 0 -25 3 -25 56 0 47 -3 55 -17 52 -14 -2 -19 -15 -21 -56
-3 -44 -6 -52 -23 -52 -18 0 -19 8 -19 105 0 98 1 105 20 105 16 0 20 -7 20
-35z m-3380 -54 l0 -80 42 -3 c31 -2 44 -8 46 -20 3 -16 -5 -18 -62 -18 l-66
0 0 100 c0 93 1 100 20 100 18 0 20 -7 20 -79z m1456 10 l22 -63 22 66 c20 61
24 66 51 66 l29 0 0 -100 c0 -99 0 -100 -25 -100 -22 0 -24 3 -21 38 6 55 -5
61 -23 11 -24 -65 -45 -62 -69 8 l-20 58 -1 -57 c-1 -51 -3 -58 -21 -58 -19 0
-20 7 -20 101 l0 100 28 -3 c24 -3 30 -11 48 -67z m769 -13 c15 -46 32 -87 36
-92 15 -17 10 -26 -15 -26 -16 0 -27 7 -31 20 -5 15 -15 20 -40 20 -25 0 -35
-5 -40 -20 -4 -12 -15 -20 -30 -20 l-23 0 30 88 c16 48 31 93 33 100 3 6 15
12 28 12 21 0 27 -10 52 -82z m814 63 c27 -27 36 -82 21 -126 -26 -79 -134
-79 -160 0 -25 76 14 145 82 145 24 0 45 -7 57 -19z m-1149 -11 c0 -11 5 -20
10 -20 6 0 10 -9 10 -20 0 -11 -4 -20 -10 -20 -17 0 -12 -77 5 -84 20 -7 19
-22 -1 -30 -33 -13 -54 12 -54 62 0 27 -5 53 -12 60 -8 8 -8 15 0 25 7 8 9 17
6 20 -10 10 6 27 27 27 12 0 19 -7 19 -20z m1657 0 c3 -11 9 -20 14 -20 5 0 9
-9 9 -20 0 -11 -4 -20 -10 -20 -5 0 -10 -18 -10 -40 0 -30 4 -40 16 -40 9 0
14 -7 12 -17 -3 -13 -12 -17 -33 -16 -35 3 -45 17 -45 69 0 22 -6 46 -12 53
-11 10 -9 15 5 26 10 7 17 17 16 21 -5 31 30 34 38 4z m503 0 c0 -11 7 -20 15
-20 8 0 15 -9 15 -20 0 -11 -7 -20 -15 -20 -11 0 -15 -11 -15 -40 0 -29 4 -40
15 -40 18 0 20 -26 3 -33 -7 -2 -23 -1 -35 4 -19 7 -23 16 -23 54 0 25 -6 55
-12 66 -10 17 -10 23 0 26 6 3 12 13 12 24 0 12 7 19 20 19 13 0 20 -7 20 -20z
m-1270 -1 c0 -7 8 -18 18 -25 16 -13 16 -15 0 -28 -23 -17 -23 -64 -1 -88 23
-26 5 -42 -30 -29 -24 9 -27 16 -27 61 0 27 -4 50 -10 50 -5 0 -10 9 -10 20 0
11 5 20 10 20 6 0 10 7 10 15 0 8 9 15 20 15 11 0 20 -5 20 -11z m-2565 -43
c11 -16 15 -41 13 -77 l-3 -53 -48 -2 c-52 -2 -77 13 -77 46 0 22 36 50 63 50
10 0 17 5 15 11 -4 12 -7 12 -44 3 -34 -9 -41 2 -19 26 26 29 80 27 100 -4z
m70 14 c4 -6 13 -5 25 2 14 9 25 9 44 0 24 -11 26 -16 26 -77 0 -58 -2 -65
-20 -65 -18 0 -20 7 -20 55 0 48 -2 55 -20 55 -18 0 -20 -7 -20 -55 0 -52 -1
-55 -25 -55 -24 0 -25 2 -25 68 0 38 3 72 7 75 9 10 21 9 28 -3z m245 0 c7 -4
6 -19 -3 -46 -11 -30 -21 -42 -48 -51 -34 -12 -34 -12 -6 -12 42 -1 67 -18 67
-46 0 -29 -26 -45 -72 -45 -45 0 -74 21 -63 46 4 10 8 44 7 74 -1 69 16 90 69
88 21 -1 43 -4 49 -8z m295 -15 c0 -13 -8 -21 -22 -23 -20 -3 -23 -9 -23 -53
0 -42 -3 -49 -20 -49 -18 0 -20 7 -20 68 0 38 2 71 5 74 3 3 22 4 43 3 30 -1
37 -5 37 -20z m121 11 c16 -12 21 -27 22 -74 l2 -60 -43 -4 c-62 -7 -87 5 -87
41 0 32 22 51 60 51 13 0 20 5 17 13 -2 6 -11 10 -18 8 -8 -2 -22 -6 -31 -8
-12 -4 -18 0 -18 10 0 34 60 48 96 23z m170 -11 c34 -47 5 -125 -47 -125 -16
0 -30 -6 -30 -12 -1 -7 -2 -20 -3 -28 0 -8 -10 -15 -21 -15 -18 0 -20 8 -23
89 -2 49 -1 95 2 101 2 7 25 11 56 11 39 -1 55 -6 66 -21z m534 -33 c6 -59 14
-70 35 -52 10 8 15 30 15 61 0 42 3 49 20 49 18 0 20 -7 20 -75 l0 -75 -32 -2
c-57 -3 -81 1 -90 14 -9 16 -11 122 -1 132 16 15 28 -4 33 -52z m330 -17 c0
-68 -2 -75 -20 -75 -18 0 -20 7 -20 75 0 68 2 75 20 75 18 0 20 -7 20 -75z
m426 62 c4 -3 2 -12 -4 -19 -5 -7 -12 -24 -14 -38 -2 -18 -12 -27 -37 -34
l-34 -10 44 -10 c36 -9 45 -15 47 -37 3 -28 -28 -49 -74 -49 -45 0 -63 17 -60
54 2 18 6 38 10 44 4 7 2 21 -4 32 -15 27 -4 59 23 70 25 10 92 8 103 -3z
m124 -7 c11 -11 20 -31 20 -45 0 -23 -4 -25 -46 -25 -32 0 -44 -4 -41 -12 2
-7 19 -13 38 -13 47 0 53 -30 7 -39 -63 -13 -113 56 -83 115 23 43 72 52 105
19z m158 8 c7 -6 12 -35 12 -74 0 -57 -2 -64 -20 -64 -18 0 -20 7 -20 55 0 48
-2 55 -20 55 -18 0 -20 -7 -20 -55 0 -52 -1 -55 -25 -55 -24 0 -25 2 -25 68 0
38 2 71 5 74 10 9 100 6 113 -4z m492 -3 c0 -8 -11 -22 -25 -31 -20 -13 -25
-24 -25 -60 0 -37 -3 -44 -20 -44 -18 0 -20 7 -20 69 l0 70 33 4 c17 2 38 5
45 5 6 1 12 -5 12 -13z m124 -7 c21 -30 20 -38 -4 -38 -11 0 -20 5 -20 11 0 6
-10 9 -22 7 -25 -3 -35 -42 -18 -68 8 -12 13 -13 30 -2 41 25 66 9 34 -22 -20
-21 -73 -20 -96 1 -25 23 -24 87 2 113 27 27 75 26 94 -2z m405 -4 c12 -15 21
-35 21 -45 0 -16 -8 -19 -46 -19 -32 0 -44 -4 -41 -12 2 -7 19 -13 38 -13 23
0 34 -5 34 -15 0 -35 -95 -26 -115 10 -27 50 9 120 60 120 19 0 36 -9 49 -26z
m129 4 c2 -12 -5 -19 -22 -24 -24 -6 -26 -11 -26 -55 0 -42 -3 -49 -20 -49
-18 0 -20 7 -20 74 l0 74 42 -1 c32 -2 44 -6 46 -19z m112 12 c9 -6 16 -33 20
-75 6 -66 5 -66 -20 -64 -14 1 -33 -2 -43 -6 -19 -8 -67 18 -67 36 0 26 23 49
55 55 49 9 44 26 -5 18 -32 -5 -40 -4 -40 9 0 31 66 49 100 27z m260 -10 c26
-26 27 -91 3 -113 -51 -44 -123 -7 -123 64 0 28 44 69 75 69 14 0 34 -9 45
-20z m138 -2 c2 -11 -5 -18 -20 -20 -20 -3 -23 -9 -26 -55 -3 -49 -5 -53 -28
-53 -23 0 -24 3 -24 68 0 38 2 71 5 73 2 3 24 5 47 5 32 -1 44 -5 46 -18z
m-2270 -50 c3 -15 -4 -18 -37 -18 -35 0 -41 3 -41 21 0 17 5 20 37 17 27 -2
39 -8 41 -20z m-659 -408 c-8 -6 -3 -9 17 -12 29 -3 37 -19 12 -26 -9 -2 -8 0
2 8 13 9 12 10 -5 8 -27 -3 -45 9 -39 27 4 8 11 12 16 9 6 -4 5 -9 -3 -14z
m184 -13 c-5 -8 -8 -7 -11 1 -3 9 -9 9 -25 1 -21 -9 -21 -9 -4 5 21 16 51 11
40 -7z m-35 -23 c-13 -13 -20 -14 -34 -4 -13 8 -14 10 -3 7 9 -3 22 -1 30 4
22 14 25 11 7 -7z m-1128 -5 c0 -3 -9 -14 -21 -25 -20 -18 -20 -19 53 -36 175
-43 295 -170 333 -353 35 -168 -40 -342 -190 -445 -116 -80 -288 -93 -418 -33
-202 95 -303 319 -238 532 50 163 189 279 370 307 24 4 52 15 62 25 9 9 20 15
23 12 3 -4 6 -1 6 5 0 5 -6 12 -12 15 -7 3 -3 4 10 4 12 -1 22 -4 22 -8z
m2251 -55 c191 -36 326 -167 365 -356 34 -165 -35 -338 -174 -436 -103 -72
-190 -95 -302 -81 -152 19 -279 109 -348 248 -36 73 -37 78 -37 186 0 111 0
112 43 198 63 128 167 208 309 237 38 8 53 16 53 28 0 13 2 14 9 4 4 -8 41
-20 82 -28z m-1086 -9 c209 -55 350 -252 332 -465 -14 -165 -122 -312 -274
-371 -83 -32 -209 -37 -289 -11 -218 69 -347 288 -300 510 51 245 293 399 531
337z m2332 -30 c133 -66 212 -169 247 -323 15 -65 15 -79 2 -143 -22 -105 -57
-172 -125 -240 -73 -72 -157 -114 -259 -128 -40 -5 -80 -15 -89 -23 -14 -11
-15 -11 -11 2 3 11 -13 20 -66 35 -270 78 -396 366 -271 622 77 158 238 249
420 238 66 -4 93 -11 152 -40z m1094 16 c84 -32 161 -92 208 -162 157 -234 75
-534 -177 -652 -126 -59 -293 -47 -414 29 -100 63 -177 180 -200 302 -31 167
59 357 213 449 110 66 251 79 370 34z m-1936 -401 c3 -5 1 -10 -4 -10 -6 0
-11 5 -11 10 0 6 2 10 4 10 3 0 8 -4 11 -10z m1140 -10 c-3 -5 -10 -10 -16
-10 -5 0 -9 5 -9 10 0 6 7 10 16 10 8 0 12 -4 9 -10z m-2155 -54 c0 -2 -7 -7
-16 -10 -8 -3 -12 -2 -9 4 6 10 25 14 25 6z"/>
<path d="M3232 3851 c-10 -28 -9 -31 9 -31 16 0 18 5 13 28 -9 37 -10 37 -22
3z"/>
<path d="M4026 3894 c-31 -30 -13 -124 24 -124 20 0 40 34 40 70 0 36 -20 70
-40 70 -5 0 -16 -7 -24 -16z"/>
<path d="M1215 3791 c-3 -5 -1 -12 5 -16 12 -7 30 2 30 16 0 12 -27 12 -35 0z"/>
<path d="M1522 3838 c2 -12 10 -23 18 -23 22 0 19 39 -3 43 -15 3 -18 -1 -15
-20z"/>
<path d="M1520 3730 c-12 -8 -12 -10 3 -16 22 -8 50 3 42 16 -8 12 -25 13 -45
0z"/>
<path d="M1957 3794 c-9 -10 2 -24 19 -24 8 0 14 7 14 15 0 15 -21 21 -33 9z"/>
<path d="M2107 3843 c-13 -12 -7 -50 9 -64 14 -11 18 -11 29 4 25 35 -9 90
-38 60z"/>
<path d="M3390 3835 c0 -8 7 -15 15 -15 8 0 15 7 15 15 0 8 -7 15 -15 15 -8 0
-15 -7 -15 -15z"/>
<path d="M3380 3725 c0 -12 7 -15 25 -13 14 2 26 8 26 13 0 6 -12 11 -26 13
-18 2 -25 -1 -25 -13z"/>
<path d="M3535 3840 c-4 -6 5 -10 19 -10 14 0 26 5 26 10 0 6 -9 10 -19 10
-11 0 -23 -4 -26 -10z"/>
<path d="M4705 3840 c-4 -6 5 -10 19 -10 14 0 26 5 26 10 0 6 -9 10 -19 10
-11 0 -23 -4 -26 -10z"/>
<path d="M4960 3784 c0 -9 7 -14 17 -12 25 5 28 28 4 28 -12 0 -21 -6 -21 -16z"/>
<path d="M5205 3830 c-7 -23 12 -63 28 -57 7 2 13 20 15 40 3 31 0 37 -17 37
-11 0 -22 -9 -26 -20z"/>
<path d="M1342 3254 c-114 -30 -219 -127 -261 -239 -25 -68 -29 -201 -6 -264
31 -90 114 -182 204 -227 51 -27 65 -29 166 -29 98 0 116 3 167 27 32 15 80
49 107 76 156 156 156 394 0 554 -62 63 -110 91 -187 107 -69 14 -124 13 -190
-5z m-87 -214 c4 -6 4 -18 1 -27 -5 -12 -9 -13 -21 -3 -9 7 -18 10 -21 7 -3
-3 7 -12 23 -21 27 -13 30 -13 41 5 15 23 30 24 52 4 15 -14 18 -14 30 0 14
16 46 20 54 6 3 -4 17 -6 30 -4 22 4 25 1 29 -28 l4 -34 1 38 c2 25 7 37 17
37 8 0 15 -6 16 -12 0 -10 2 -10 6 0 2 6 16 12 29 12 13 0 24 -6 24 -12 0 -8
3 -9 8 -3 4 6 18 16 31 24 21 12 26 11 36 -3 7 -9 22 -16 34 -16 13 0 21 -6
21 -16 0 -12 5 -10 19 7 11 13 22 21 26 18 9 -10 -38 -118 -54 -124 -21 -8
-34 10 -17 24 11 10 12 19 4 42 -5 16 -14 29 -19 29 -13 0 -11 -37 2 -46 16
-10 -5 -26 -24 -18 -11 4 -18 18 -18 38 l-2 31 -6 -34 c-9 -49 -31 -53 -31 -6
0 45 -24 43 -28 -2 -3 -30 -5 -31 -50 -30 -26 0 -53 4 -59 10 -9 6 -18 5 -28
-3 -19 -15 -65 -5 -65 15 0 10 -9 15 -27 14 -25 -2 -25 -2 -5 -6 13 -3 21 -10
19 -16 -6 -18 -42 -20 -56 -3 -12 14 -15 14 -28 0 -19 -19 -52 -15 -67 8 -13
21 0 36 16 20 14 -14 28 -16 28 -4 0 5 -11 14 -25 20 -27 12 -35 56 -12 65 22
9 56 7 62 -3z m355 0 c0 -5 -6 -10 -14 -10 -8 0 -18 5 -21 10 -3 6 3 10 14 10
12 0 21 -4 21 -10z m-275 -240 c11 -34 12 -34 24 -12 12 23 64 31 76 12 5 -8
12 -7 22 1 11 10 19 10 33 1 10 -6 21 -8 24 -4 12 12 49 12 63 0 11 -9 15 -7
20 10 6 25 33 30 33 7 0 -8 5 -15 10 -15 6 0 10 -7 10 -15 0 -8 -4 -15 -10
-15 -14 0 -12 -27 3 -33 9 -3 9 -8 1 -16 -17 -19 -43 -2 -47 32 -4 30 -4 29
-5 -6 -2 -48 -25 -45 -31 4 l-4 34 -6 -35 c-6 -33 -8 -34 -53 -37 -39 -3 -49
0 -58 17 -6 11 -16 18 -21 14 -6 -3 -3 -12 8 -20 17 -13 17 -15 -6 -34 -24
-21 -59 -19 -73 4 -32 49 -53 60 -64 31 -4 -8 -13 -15 -21 -15 -18 0 -13 36
11 95 19 46 45 44 61 -5z"/>
<path d="M1380 2965 c0 -9 6 -12 15 -9 8 4 15 10 15 15 0 5 -7 9 -15 9 -8 0
-15 -7 -15 -15z"/>
<path d="M3607 3259 c-106 -25 -218 -116 -265 -217 -24 -51 -27 -69 -27 -167
0 -101 2 -115 28 -166 38 -73 112 -148 184 -185 54 -27 66 -29 168 -29 99 0
116 3 168 27 69 33 155 116 185 181 49 103 49 232 1 344 -22 51 -120 153 -175
181 -72 36 -187 50 -267 31z m3 -229 c11 -11 20 -25 20 -31 0 -6 7 -3 16 5 20
20 33 20 56 -1 10 -9 18 -11 18 -6 0 17 29 24 50 13 14 -7 25 -7 38 1 28 17
48 6 56 -32 9 -49 -30 -79 -62 -47 -8 8 -15 8 -26 -1 -17 -14 -56 -6 -56 12 0
7 -5 4 -11 -5 -13 -24 -56 -23 -71 1 -11 19 -12 19 -39 -1 -46 -35 -64 -22
-67 50 l-3 62 31 0 c17 0 39 -9 50 -20z m-19 -245 c16 -46 18 -48 18 -18 1 36
13 43 57 33 17 -4 39 -3 48 2 12 7 22 5 32 -3 11 -9 17 -10 22 -1 8 11 51 10
70 -2 8 -5 12 0 12 13 0 27 31 28 48 1 9 -16 10 -24 0 -39 -9 -15 -9 -23 1
-35 11 -13 11 -17 -3 -22 -9 -3 -23 -1 -30 5 -10 8 -16 9 -21 1 -10 -16 -25
-1 -25 25 0 13 -4 27 -10 30 -6 4 -10 -6 -10 -24 0 -36 -19 -52 -27 -22 -4 15
-13 21 -32 20 -24 -2 -24 -2 -3 -6 34 -7 20 -28 -16 -27 -23 1 -33 -3 -37 -17
-10 -32 -67 -25 -93 11 -25 33 -47 39 -56 15 -6 -16 -36 -21 -36 -5 0 5 9 34
21 65 26 69 45 69 70 0z"/>
<path d="M3560 2984 c0 -45 24 -42 28 4 2 24 -1 32 -12 32 -12 0 -16 -10 -16
-36z"/>
<path d="M3660 2970 c0 -11 5 -20 10 -20 6 0 10 9 10 20 0 11 -4 20 -10 20 -5
0 -10 -9 -10 -20z"/>
<path d="M3744 2978 c-9 -14 1 -20 30 -16 l26 3 -25 12 c-16 7 -27 8 -31 1z"/>
<path d="M3660 2746 c0 -2 7 -7 16 -10 8 -3 12 -2 9 4 -6 10 -25 14 -25 6z"/>
<path d="M2470 3256 c-72 -21 -125 -52 -175 -103 -120 -125 -146 -310 -63
-466 40 -74 119 -147 159 -147 18 0 29 -5 29 -14 0 -19 75 -36 159 -36 107 0
188 36 273 120 59 59 69 75 88 139 30 97 25 201 -13 284 -37 80 -123 168 -198
202 -73 32 -188 42 -259 21z m181 -208 c1 -7 1 -23 2 -36 0 -21 1 -22 18 -6
20 18 54 12 63 -12 19 -50 -33 -94 -65 -56 -16 21 -17 21 -22 2 -6 -24 -52
-27 -65 -4 -8 14 -10 14 -21 0 -16 -19 -42 -21 -59 -4 -9 9 -15 9 -24 0 -19
-19 -55 -14 -72 10 -46 65 18 145 69 88 22 -25 11 -39 -17 -21 -27 17 -43 1
-34 -33 6 -25 26 -37 26 -16 0 6 8 10 18 10 9 0 22 10 27 22 13 29 38 34 60
12 16 -16 18 -16 27 -1 5 9 15 17 22 17 8 0 16 9 19 20 6 22 26 27 28 8z
m-235 -225 c9 -10 24 -18 33 -18 12 0 16 -9 15 -32 -1 -18 2 -33 7 -33 5 0 9
16 9 36 0 42 23 43 28 1 2 -15 7 -25 12 -22 4 3 6 14 3 24 -3 10 0 22 7 26 18
11 58 -3 63 -23 3 -9 5 0 6 21 1 26 6 37 16 37 12 0 15 -14 15 -65 0 -51 -3
-65 -15 -65 -8 0 -15 6 -15 13 0 8 -3 8 -8 1 -9 -13 -139 -17 -147 -4 -11 18
-26 10 -20 -10 10 -31 -27 -26 -64 9 -36 34 -40 72 -11 101 25 25 43 25 66 3z
m257 -1 c-1 -5 6 -8 15 -5 26 6 72 -14 72 -33 0 -12 4 -11 19 7 29 37 36 15
15 -47 -21 -61 -39 -83 -55 -67 -7 7 -7 17 2 31 11 17 11 25 -1 47 -12 22 -15
24 -23 9 -6 -11 -5 -19 3 -24 15 -9 4 -30 -15 -30 -16 0 -31 43 -20 59 3 6 1
11 -4 11 -6 0 -11 -16 -11 -35 0 -25 -4 -35 -16 -35 -12 0 -15 11 -13 58 1 31
4 61 6 65 7 11 28 2 26 -11z"/>
<path d="M2520 2976 c0 -8 5 -18 10 -21 6 -3 10 3 10 14 0 12 -4 21 -10 21 -5
0 -10 -6 -10 -14z"/>
<path d="M2604 2979 c-3 -6 -1 -16 5 -22 8 -8 11 -5 11 11 0 24 -5 28 -16 11z"/>
<path d="M2377 2804 c-4 -4 -7 -20 -7 -36 0 -35 23 -34 28 1 4 25 -10 46 -21
35z"/>
<path d="M4722 3259 c-18 -5 -54 -21 -80 -36 -283 -154 -273 -564 18 -700 74
-35 204 -43 281 -18 99 33 196 118 240 211 19 41 23 66 23 159 1 99 -2 116
-25 165 -32 67 -123 160 -185 189 -81 38 -198 51 -272 30z m195 -25 c-3 -3
-12 -4 -19 -1 -8 3 -5 6 6 6 11 1 17 -2 13 -5z m-185 -201 c10 -9 18 -23 18
-31 0 -13 3 -12 19 2 20 19 61 14 61 -6 0 -6 8 -4 18 5 21 19 48 22 57 7 4 -7
13 -6 26 1 33 17 59 2 59 -35 0 -17 -5 -37 -12 -44 -17 -17 -48 -15 -55 4 -5
15 -7 15 -15 0 -11 -20 -42 -21 -59 0 -11 14 -13 14 -21 0 -12 -22 -45 -20
-60 3 -12 19 -12 19 -36 0 -14 -10 -35 -19 -48 -19 -23 0 -24 3 -24 65 0 64 1
65 27 65 14 0 35 -7 45 -17z m-22 -230 c14 -54 32 -77 28 -38 -3 24 2 31 25
39 19 7 34 7 46 -1 14 -9 21 -9 30 0 9 9 16 9 31 -1 12 -7 21 -8 25 -2 3 5 24
7 45 5 31 -4 40 -2 40 10 0 18 26 20 36 3 4 -7 9 -34 10 -60 l2 -48 -41 3
c-39 3 -42 5 -48 37 l-6 35 -2 -37 -1 -36 -55 3 c-46 2 -55 0 -60 -16 -11 -32
-69 -25 -95 11 -24 34 -36 37 -62 13 -34 -31 -32 -8 7 105 9 25 34 11 45 -25z"/>
<path d="M4690 2985 c0 -25 4 -35 13 -32 6 2 12 16 12 32 0 16 -6 30 -12 33
-9 2 -13 -8 -13 -33z"/>
<path d="M4790 2970 c0 -19 3 -21 12 -12 9 9 9 15 0 24 -9 9 -12 7 -12 -12z"/>
<path d="M4870 2970 c0 -16 4 -20 16 -16 9 3 23 6 32 6 21 0 5 15 -25 25 -19
5 -23 3 -23 -15z"/>
<path d="M4795 2740 c3 -5 11 -10 16 -10 6 0 7 5 4 10 -3 6 -11 10 -16 10 -6
0 -7 -4 -4 -10z"/>
<path d="M4863 2743 c9 -2 23 -2 30 0 6 3 -1 5 -18 5 -16 0 -22 -2 -12 -5z"/>
<path d="M5857 3259 c-46 -11 -124 -51 -157 -81 -38 -34 -81 -94 -73 -101 3
-4 1 -7 -6 -7 -16 0 -49 -80 -57 -140 -3 -27 -3 -75 1 -107 l7 -58 16 33 c19
39 55 52 80 29 18 -17 152 -29 152 -14 0 4 -4 7 -10 7 -18 0 -11 18 10 25 14
5 29 -2 50 -24 31 -30 31 -30 50 -11 24 24 46 26 53 6 4 -11 16 -13 41 -9 25
4 36 2 36 -7 0 -10 3 -10 15 0 8 7 25 10 40 6 18 -5 25 -2 25 9 0 8 7 15 15
15 8 0 15 -6 15 -14 0 -17 27 -29 35 -16 9 15 32 12 49 -6 15 -14 16 -14 16 0
0 11 9 16 30 16 20 0 30 -5 30 -15 0 -8 -7 -15 -15 -15 -10 0 -15 -10 -15 -29
0 -33 -17 -51 -26 -27 -5 14 -8 14 -21 0 -23 -22 -46 -13 -65 26 -15 28 -18
31 -18 13 0 -12 5 -25 10 -28 21 -13 0 -21 -54 -18 -69 2 -79 8 -71 40 4 18 2
24 -7 21 -7 -3 -14 -17 -16 -31 -5 -38 -32 -35 -32 4 0 16 -4 28 -9 25 -4 -3
-6 -17 -3 -31 3 -18 0 -25 -11 -25 -8 0 -18 6 -20 13 -4 10 -6 10 -6 0 -2 -25
-30 -13 -34 15 l-4 27 -2 -27 c-2 -44 -31 -36 -31 8 0 21 -4 33 -10 29 -5 -3
-10 -20 -10 -36 0 -23 -4 -30 -17 -28 -10 1 -26 -1 -35 -6 -29 -12 -48 2 -48
36 0 42 -23 33 -30 -12 -5 -34 -5 -34 -20 -12 -16 21 -16 21 -28 2 -8 -12 -23
-19 -44 -19 -29 0 -30 -1 -13 -13 10 -8 15 -19 11 -25 -12 -20 78 -105 150
-142 66 -34 73 -35 179 -35 105 0 113 1 172 33 74 40 155 123 185 189 29 67
36 200 14 278 -10 31 -20 55 -23 52 -3 -3 -15 -34 -28 -68 -22 -62 -45 -88
-45 -52 0 23 35 120 50 138 14 17 -54 97 -121 143 -81 54 -202 75 -302 51z
m-91 -211 c4 -6 6 -29 6 -50 -1 -25 2 -37 8 -33 6 4 8 15 5 26 -8 25 20 37 48
20 15 -10 21 -10 27 -1 12 19 63 7 76 -17 11 -24 26 -21 17 3 -7 20 26 30 50
15 14 -9 22 -10 30 -2 15 15 67 14 67 -1 0 -9 3 -9 12 0 19 19 58 15 59 -5 1
-17 2 -17 6 0 3 11 14 17 34 17 31 0 40 -17 14 -26 -9 -4 -15 -19 -15 -40 0
-33 -12 -45 -25 -24 -4 7 -13 6 -26 -1 -11 -5 -28 -8 -37 -5 -12 4 -21 -2 -27
-17 -13 -30 -67 -31 -75 -2 -3 12 -13 20 -25 20 -11 0 -27 3 -36 7 -9 4 -21 2
-27 -4 -16 -16 -29 -1 -35 37 -4 28 -4 28 -6 -6 -1 -36 -1 -36 -48 -37 -26 -1
-53 4 -60 10 -9 7 -13 7 -13 -1 0 -22 -30 -11 -31 12 l0 22 -10 -23 c-10 -26
-26 -21 -40 12 -8 20 -9 20 -6 -4 1 -17 -3 -25 -13 -25 -11 0 -16 15 -18 63
-3 56 -1 62 17 62 14 0 23 -11 32 -37 10 -30 14 -34 17 -18 12 58 32 80 48 53z"/>
<path d="M6085 2950 c3 -5 8 -10 11 -10 2 0 4 5 4 10 0 6 -5 10 -11 10 -5 0
-7 -4 -4 -10z"/>
<path d="M5627 2803 c-11 -10 -8 -51 3 -58 6 -3 14 4 19 17 12 34 -2 61 -22
41z"/>
<path d="M5780 2761 c0 -14 5 -18 20 -14 24 6 26 19 4 27 -23 9 -24 8 -24 -13z"/>
<path d="M6212 2760 c0 -14 2 -19 5 -12 2 6 2 18 0 25 -3 6 -5 1 -5 -13z"/>
<path d="M7194 3600 c-12 -5 -31 -21 -43 -36 -21 -26 -21 -34 -21 -385 0 -203
4 -369 10 -383 22 -59 -30 -56 1150 -56 930 0 1081 2 1086 14 3 8 12 12 19 10
7 -3 20 5 29 18 14 20 16 69 16 390 l0 368 -29 32 -29 33 -1084 2 c-596 1
-1093 -2 -1104 -7z m2205 -46 c20 -26 21 -38 21 -380 l0 -352 -26 -31 -26 -31
-1079 0 -1079 0 -30 28 -31 27 0 346 c0 201 4 357 10 372 6 14 18 30 28 36 12
7 364 10 1105 11 l1087 0 20 -26z"/>
<path d="M8060 3375 c0 -9 5 -15 11 -13 6 2 11 8 11 13 0 5 -5 11 -11 13 -6 2
-11 -4 -11 -13z"/>
<path d="M8116 3382 c-3 -6 -1 -14 5 -17 15 -10 25 3 12 16 -7 7 -13 7 -17 1z"/>
<path d="M8377 3383 c-10 -9 -9 -23 1 -23 5 0 9 7 9 15 0 17 -1 18 -10 8z"/>
<path d="M7330 3305 l0 -75 38 0 c49 0 72 24 72 73 0 48 -28 77 -75 77 l-35 0
0 -75z m68 43 c20 -20 15 -86 -8 -98 -11 -6 -25 -8 -30 -5 -11 7 -14 98 -3
108 10 11 28 8 41 -5z"/>
<path d="M8600 3298 c0 -49 4 -78 9 -72 5 5 11 18 13 28 5 31 26 30 43 -3 8
-17 20 -31 25 -31 14 0 13 12 -5 53 -13 32 -13 36 0 31 11 -5 15 1 13 22 -2
42 -16 54 -59 54 l-39 0 0 -82z m77 46 c8 -20 -21 -49 -41 -41 -9 4 -16 18
-16 32 0 20 5 25 25 25 14 0 28 -7 32 -16z"/>
<path d="M7594 3343 c-4 -10 -6 -22 -4 -28 1 -5 2 -24 2 -42 -1 -17 5 -36 13
-43 12 -10 13 -8 10 11 -3 13 -1 38 4 56 6 20 6 35 0 39 -5 3 -7 10 -4 15 4 5
2 9 -3 9 -6 0 -13 -8 -18 -17z"/>
<path d="M8300 3346 c0 -8 -6 -17 -12 -19 -10 -4 -10 -6 0 -6 8 -1 12 -17 12
-46 0 -25 5 -45 10 -45 6 0 10 20 10 44 0 26 5 46 13 49 10 4 10 6 0 6 -7 1
-13 8 -13 16 0 8 -4 15 -10 15 -5 0 -10 -6 -10 -14z"/>
<path d="M9186 3344 c-3 -9 -11 -12 -16 -9 -6 4 -17 2 -24 -4 -7 -6 -21 -9
-30 -5 -14 5 -16 -2 -16 -50 0 -31 5 -56 10 -56 6 0 10 15 10 34 0 38 21 66
51 66 16 0 19 -7 19 -44 0 -36 4 -46 21 -51 22 -7 43 5 22 12 -15 5 -17 57 -3
82 7 14 4 20 -15 29 -19 9 -24 8 -29 -4z"/>
<path d="M7788 3280 c-2 -43 1 -60 10 -60 7 0 12 15 12 41 0 32 4 42 20 46 21
6 26 18 11 28 -5 3 -13 1 -16 -5 -5 -8 -11 -8 -20 0 -11 9 -14 -1 -17 -50z"/>
<path d="M7870 3278 c0 -45 3 -58 15 -58 11 0 15 12 15 50 0 36 4 50 14 50 17
0 26 -22 26 -66 0 -19 5 -34 10 -34 6 0 10 20 10 44 0 31 5 46 16 50 26 10 34
-2 34 -50 0 -61 16 -56 19 6 2 44 -1 51 -21 59 -13 5 -30 5 -39 0 -9 -4 -19
-5 -23 -1 -4 3 -23 7 -42 8 l-34 1 0 -59z"/>
<path d="M8460 3327 c0 -6 -3 -7 -7 -4 -3 4 -12 2 -20 -4 -23 -20 -14 -28 17
-16 25 9 33 9 39 -2 6 -9 11 -10 15 -2 4 6 5 15 2 20 -9 13 -46 20 -46 8z"/>
<path d="M7475 3320 c-4 -6 -7 -24 -7 -42 -1 -35 25 -61 56 -56 30 5 30 24 0
23 -15 0 -29 6 -31 13 -3 8 7 12 31 12 40 0 40 -1 26 34 -7 20 -17 26 -39 26
-16 0 -33 -5 -36 -10z m49 -6 c25 -9 19 -24 -9 -24 -24 0 -32 10 -18 23 8 8 8
8 27 1z"/>
<path d="M7669 3306 c-13 -27 -4 -80 11 -71 5 3 7 12 3 20 -4 12 4 15 33 16
26 1 31 3 14 6 -51 8 -55 12 -36 31 16 16 18 16 32 -2 15 -22 30 -16 21 9 -10
26 -65 19 -78 -9z"/>
<path d="M8370 3280 c0 -27 5 -50 10 -50 6 0 10 23 10 50 0 28 -4 50 -10 50
-5 0 -10 -22 -10 -50z"/>
<path d="M8742 3318 c-13 -13 -16 -47 -6 -72 4 -11 18 -16 43 -15 21 1 27 3
14 6 -12 2 -27 10 -33 18 -9 11 -5 15 25 21 29 5 35 10 33 27 -2 11 -11 21
-22 23 -14 2 -16 0 -7 -9 17 -17 13 -27 -13 -27 -19 0 -23 4 -19 20 6 23 2 25
-15 8z"/>
<path d="M8856 3323 c-10 -10 -7 -143 3 -143 5 0 11 10 13 23 2 16 9 21 26 19
12 -2 22 2 22 8 0 6 5 8 12 4 7 -4 8 -3 4 4 -4 7 -2 12 3 12 14 0 14 36 1 61
-6 10 -20 19 -32 19 -21 0 -21 -1 -4 -13 22 -16 25 -66 5 -78 -20 -12 -31 4
-31 45 0 35 -9 52 -22 39z"/>
<path d="M9044 3307 c9 -38 -1 -67 -24 -67 -23 0 -38 44 -21 63 8 10 7 14 -4
14 -18 0 -29 -37 -20 -66 8 -26 46 -37 74 -21 26 13 29 71 4 91 -15 13 -16 11
-9 -14z"/>
<path d="M8070 3288 c0 -13 -3 -33 -6 -45 -4 -13 -2 -23 3 -23 5 0 10 20 12
45 1 25 -1 45 -4 45 -3 0 -5 -10 -5 -22z"/>
<path d="M8120 3290 c0 -11 5 -20 10 -20 6 0 10 9 10 20 0 11 -4 20 -10 20 -5
0 -10 -9 -10 -20z"/>
<path d="M8120 3253 c0 -5 5 -15 10 -23 8 -12 10 -11 10 8 0 12 -4 22 -10 22
-5 0 -10 -3 -10 -7z"/>
<path d="M8420 3252 c0 -31 59 -43 81 -16 11 13 9 14 -13 9 -15 -4 -36 -2 -47
5 -12 6 -21 7 -21 2z"/>
<path d="M8198 3233 c7 -3 16 -2 19 1 4 3 -2 6 -13 5 -11 0 -14 -3 -6 -6z"/>
<path d="M9150 3100 c6 -11 13 -20 16 -20 2 0 0 9 -6 20 -6 11 -13 20 -16 20
-2 0 0 -9 6 -20z"/>
<path d="M8520 3035 c0 -43 4 -75 10 -75 6 0 10 9 10 20 0 11 3 20 8 20 4 0
13 -9 20 -20 7 -11 17 -20 23 -20 7 0 4 11 -6 26 -13 21 -15 31 -6 50 7 16 7
24 0 24 -5 0 -12 -7 -15 -15 -11 -28 -24 -15 -24 25 0 22 -4 40 -10 40 -6 0
-10 -32 -10 -75z"/>
<path d="M8696 3099 c-3 -8 -7 -36 -8 -64 -2 -40 -7 -51 -22 -53 -17 -4 -35
12 -36 30 0 13 32 38 41 33 5 -4 9 -1 9 4 0 16 -50 13 -56 -3 -21 -55 -5 -88
39 -84 l32 3 5 70 c6 71 5 89 -4 64z"/>
<path d="M8730 3037 l0 -74 37 2 c32 1 39 5 48 28 12 36 -4 62 -39 62 -22 -1
-26 4 -26 27 0 15 -4 28 -10 28 -6 0 -10 -31 -10 -73z m65 -23 c0 -22 -5 -29
-20 -29 -23 0 -32 30 -14 51 18 22 34 11 34 -22z"/>
<path d="M8970 3099 c0 -5 5 -7 10 -4 6 3 10 8 10 11 0 2 -4 4 -10 4 -5 0 -10
-5 -10 -11z"/>
<path d="M7826 3092 c-3 -6 -1 -14 5 -17 15 -10 25 3 12 16 -7 7 -13 7 -17 1z"/>
<path d="M7904 3075 c-4 -8 -4 -29 -2 -45 3 -17 1 -30 -4 -30 -4 0 -8 -6 -8
-13 0 -8 7 -14 15 -14 12 0 15 13 15 59 0 58 -5 72 -16 43z"/>
<path d="M8272 3082 c1 -4 -4 -20 -10 -35 -7 -16 -12 -33 -12 -38 0 -5 -4 -9
-10 -9 -5 0 -10 8 -10 17 0 9 -3 14 -6 10 -9 -9 6 -68 17 -62 4 3 14 25 21 48
7 23 19 47 27 53 12 9 11 12 -2 17 -9 3 -16 3 -15 -1z"/>
<path d="M8183 3023 c0 -35 4 -63 9 -63 10 0 9 54 -2 95 -6 23 -8 16 -7 -32z"/>
<path d="M8051 3057 c0 -10 -11 -22 -23 -27 -18 -7 -19 -9 -5 -9 10 -1 17 -9
17 -21 0 -11 5 -20 10 -20 6 0 10 9 10 20 0 11 7 20 15 20 8 0 15 5 15 10 0 6
-6 10 -14 10 -8 0 -17 8 -19 18 -4 16 -5 16 -6 -1z"/>
<path d="M9167 3032 c3 -26 -1 -50 -12 -71 -9 -18 -14 -35 -12 -37 2 -3 12 11
21 30 17 36 22 116 7 116 -5 0 -7 -17 -4 -38z"/>
<path d="M8346 3052 c-3 -4 8 -7 23 -4 20 3 28 0 28 -12 0 -9 -6 -16 -13 -16
-7 0 -15 -4 -18 -9 -4 -5 3 -7 14 -4 24 6 26 -9 5 -27 -12 -10 -18 -10 -32 1
-14 12 -16 12 -11 -1 3 -9 17 -15 35 -15 30 -1 30 0 29 45 -1 41 -3 45 -28 48
-14 2 -29 -1 -32 -6z"/>
<path d="M8440 3012 c0 -33 4 -51 10 -47 6 3 10 17 10 30 0 13 10 33 22 45 12
11 17 20 12 20 -6 0 -16 -6 -22 -12 -10 -10 -15 -10 -22 2 -7 11 -10 -1 -10
-38z"/>
<path d="M8852 3048 c-7 -7 -12 -24 -12 -38 0 -32 17 -50 46 -50 28 0 39 16
36 54 -4 43 -42 62 -70 34z m47 -26 c12 -23 -2 -47 -23 -39 -24 10 -20 57 5
57 5 0 13 -8 18 -18z"/>
<path d="M8946 3044 c-10 -25 -7 -84 4 -84 6 0 10 23 10 50 0 52 -4 61 -14 34z"/>
<path d="M8993 3010 c0 -30 2 -43 4 -27 2 15 2 39 0 55 -2 15 -4 2 -4 -28z"/>
<path d="M9030 3008 c0 -27 5 -48 10 -48 6 0 10 18 10 39 0 27 5 41 16 45 23
9 27 3 28 -41 1 -42 19 -48 24 -9 5 43 -13 65 -53 63 -35 -2 -35 -2 -35 -49z"/>
<path d="M6940 3174 l0 -44 -135 0 c-122 0 -135 -2 -136 -17 0 -15 -2 -15 -9
2 -8 18 -9 17 -9 -7 l-1 -28 145 0 145 0 0 -40 c0 -22 3 -40 7 -40 3 0 29 17
57 38 28 22 61 45 73 53 21 15 20 16 -58 71 l-79 57 0 -45z"/>
<path d="M3073 1935 c0 -38 2 -53 4 -32 2 20 2 52 0 70 -2 17 -4 1 -4 -38z"/>
<path d="M3113 1935 c0 -38 2 -53 4 -32 2 20 2 52 0 70 -2 17 -4 1 -4 -38z"/>
<path d="M3232 1935 l-3 -65 30 0 c39 0 58 31 42 67 -8 18 -17 24 -31 20 -16
-4 -20 0 -20 19 0 13 -3 24 -7 24 -5 0 -9 -29 -11 -65z m53 -21 c0 -19 -6 -30
-17 -32 -14 -3 -18 3 -18 26 0 16 3 32 7 36 14 13 28 -1 28 -30z"/>
<path d="M3620 1990 c0 -5 5 -10 10 -10 6 0 10 5 10 10 0 6 -4 10 -10 10 -5 0
-10 -4 -10 -10z"/>
<path d="M4140 1936 c0 -44 4 -65 10 -61 7 4 8 28 4 63 -9 79 -14 78 -14 -2z"/>
<path d="M4770 1941 c0 -33 5 -63 10 -66 6 -4 10 16 10 54 0 33 -4 63 -10 66
-6 4 -10 -16 -10 -54z"/>
<path d="M2869 1966 c-24 -52 17 -109 61 -86 21 11 27 30 10 30 -5 0 -10 -5
-10 -11 0 -6 -10 -9 -22 -7 -20 3 -23 9 -23 43 0 34 3 40 23 43 12 2 22 -1 22
-7 0 -6 5 -11 11 -11 8 0 8 5 -1 15 -20 24 -59 19 -71 -9z"/>
<path d="M3880 1930 l0 -60 38 2 37 1 -33 4 c-27 4 -33 8 -30 26 2 13 13 24
28 28 l25 6 -25 4 c-35 6 -32 32 5 40 29 6 29 7 -7 8 l-38 1 0 -60z"/>
<path d="M4680 1930 c0 -33 4 -60 10 -60 6 0 10 11 10 25 0 20 5 25 28 26 l27
1 -27 11 c-40 15 -37 45 5 50 28 3 26 4 -10 5 l-43 2 0 -60z"/>
<path d="M3568 1968 c-8 -24 8 -92 22 -96 12 -4 13 -2 3 9 -15 15 -17 66 -4
71 5 2 3 8 -4 15 -10 9 -15 9 -17 1z"/>
<path d="M4363 1965 c-6 -7 -8 -16 -3 -21 5 -5 10 -22 12 -38 2 -16 9 -31 16
-32 7 -1 8 0 2 3 -12 6 -13 70 -1 75 5 2 4 8 -3 14 -8 8 -15 7 -23 -1z"/>
<path d="M2983 1954 c-18 -8 -16 -59 3 -75 24 -20 49 1 49 42 0 27 -4 34 -20
36 -11 1 -26 -1 -32 -3z m45 -33 c4 -28 -17 -45 -35 -29 -14 11 -17 40 -6 52
14 14 38 0 41 -23z"/>
<path d="M3150 1952 c0 -5 10 -8 21 -8 16 1 22 -6 24 -26 4 -27 -17 -44 -37
-32 -7 5 -4 12 7 21 16 11 17 13 3 13 -9 0 -20 -5 -23 -10 -11 -17 15 -40 42
-38 22 2 24 6 21 43 -3 35 -6 40 -30 43 -16 2 -28 -1 -28 -6z"/>
<path d="M3330 1944 c-18 -20 -1 -67 25 -72 19 -4 45 21 45 44 0 16 -28 44
-44 44 -8 0 -19 -7 -26 -16z m48 -23 c5 -34 -16 -51 -33 -27 -10 14 -11 24 -4
38 13 24 33 18 37 -11z"/>
<path d="M3422 1910 c1 -37 2 -39 5 -12 3 18 11 36 19 39 21 8 17 19 -6 19
-17 0 -20 -6 -18 -46z"/>
<path d="M3485 1950 c-5 -9 -1 -10 13 -6 30 10 37 -12 8 -24 -16 -6 -26 -17
-26 -30 0 -16 6 -20 30 -18 30 2 31 4 28 43 -2 32 -7 41 -25 43 -11 2 -24 -2
-28 -8z m43 -52 c-7 -19 -38 -22 -38 -4 0 10 9 16 21 16 12 0 19 -5 17 -12z"/>
<path d="M3620 1915 c0 -25 5 -45 10 -45 6 0 10 20 10 45 0 25 -4 45 -10 45
-5 0 -10 -20 -10 -45z"/>
<path d="M3669 1915 c9 -25 19 -45 22 -45 8 0 40 82 35 88 -3 2 -11 -9 -19
-25 l-15 -28 -13 28 c-20 44 -28 31 -10 -18z"/>
<path d="M3750 1939 c-9 -16 -9 -28 -1 -45 11 -25 45 -32 56 -13 4 6 1 10 -6
8 -25 -3 -39 1 -39 11 0 6 12 10 26 10 21 0 25 4 22 23 -4 31 -43 35 -58 6z
m48 -7 c2 -7 -6 -12 -17 -12 -21 0 -27 11 -14 24 9 9 26 2 31 -12z"/>
<path d="M3965 1945 c31 -89 34 -92 55 -37 8 20 16 40 18 45 2 4 -1 7 -7 7 -6
0 -13 -11 -17 -25 -6 -23 -24 -36 -24 -17 0 5 -7 17 -16 28 -15 19 -16 19 -9
-1z"/>
<path d="M4065 1949 c-4 -6 0 -9 10 -7 10 2 20 -2 22 -9 2 -6 -6 -13 -19 -15
-15 -2 -23 -10 -23 -23 0 -16 7 -20 33 -22 30 -1 32 1 32 31 0 45 -37 75 -55
45z m33 -51 c-6 -18 -28 -21 -28 -4 0 9 7 16 16 16 9 0 14 -5 12 -12z"/>
<path d="M4184 1920 c1 -43 2 -45 34 -47 31 -1 32 0 32 38 0 47 -17 52 -22 7
-4 -48 -31 -43 -39 7 l-7 40 2 -45z"/>
<path d="M4280 1952 c0 -6 9 -8 20 -5 14 4 20 0 20 -10 0 -9 -10 -17 -22 -19
-15 -2 -23 -10 -23 -23 0 -16 7 -20 33 -20 32 -1 33 0 30 40 -3 35 -6 40 -30
43 -16 2 -28 -1 -28 -6z m40 -51 c0 -14 -18 -23 -30 -16 -6 4 -8 11 -5 16 8
12 35 12 35 0z"/>
<path d="M4423 1915 c0 -27 2 -38 4 -22 2 15 2 37 0 50 -2 12 -4 0 -4 -28z"/>
<path d="M4462 1948 c-7 -7 -12 -21 -12 -33 0 -46 53 -62 71 -21 21 45 -26 87
-59 54z m46 -35 c-2 -17 -9 -28 -18 -28 -9 0 -16 11 -18 28 -3 22 1 27 18 27
17 0 21 -5 18 -27z"/>
<path d="M4551 1911 c2 -44 2 -45 8 -11 9 51 39 53 43 3 3 -30 6 -34 12 -19
15 31 -5 71 -37 72 -26 1 -27 -1 -26 -45z"/>
<path d="M4820 1946 c-15 -19 -9 -56 12 -69 34 -22 66 41 36 71 -16 16 -33 15
-48 -2z m44 -44 c-13 -20 -25 -20 -38 1 -7 10 -5 21 4 32 12 15 15 15 29 0 12
-12 13 -19 5 -33z"/>
<path d="M4901 1945 c0 -11 6 -33 13 -50 l13 -30 15 35 15 35 7 -32 c9 -40 22
-42 30 -5 4 15 9 35 12 45 3 9 1 17 -5 17 -6 0 -11 -8 -11 -18 0 -32 -13 -34
-26 -5 l-12 28 -12 -30 -12 -30 -13 30 c-10 23 -13 25 -14 10z"/>
</g>
</svg>
